
  <svg width="498" height="48" viewBox="0 0 2656 256" fill="none" xmlns="http://www.w3.org/2000/svg" xmlns:xlink="http://www.w3.org/1999/xlink" version="1.1">
    
        <g transform="translate(0, 0)">
          <svg width="256" height="256" viewBox="0 0 256 256" fill="none" xmlns="http://www.w3.org/2000/svg">
<g clip-path="url(#clip0_33_740)">
<path d="M196 0H60C26.8629 0 0 26.8629 0 60V196C0 229.137 26.8629 256 60 256H196C229.137 256 256 229.137 256 196V60C256 26.8629 229.137 0 196 0Z" fill="#242938"/>
<path fill-rule="evenodd" clip-rule="evenodd" d="M191.072 195.009C187.802 200.396 184.532 204.435 180.588 208.185C176.164 212.129 174.914 215.591 164.718 216.939C157.505 218.286 151.253 215.591 148.848 214.534C141.634 211.167 137.882 210.11 133.555 210.11C129.323 210.11 125.764 211.168 118.646 214.438C116.434 215.591 110.471 218.189 103.161 216.843C95.6587 215.496 91.8113 212.611 89.022 210.206C83.251 205.109 78.9228 200.299 74.9792 194.721L191.072 195.009Z" fill="#00A0E2"/>
<path fill-rule="evenodd" clip-rule="evenodd" d="M58.7255 105.27C62.0919 97.6719 66.5163 92.5741 70.9407 89.0154C82.1942 79.7818 100.565 79.2047 109.029 81.4169C115.955 83.1482 120.86 87.3802 128.651 87.3802C136.826 87.3802 141.538 83.2444 147.984 81.4169C156.448 79.3009 174.915 79.9741 186.938 89.2077C190.497 91.9009 193.765 95.5558 195.593 97.5757C191.266 100.75 188.668 103.058 186.552 105.27H58.7255Z" fill="#34BE2D"/>
<path fill-rule="evenodd" clip-rule="evenodd" d="M186.553 105.27C184.533 107.482 183.091 109.599 181.455 112.58C179.533 116.043 177.223 120.756 176.646 127.873H53.0508C53.147 126.719 53.2431 125.469 53.4355 124.218C54.5897 116.62 56.4172 110.368 58.7256 105.27H186.553Z" fill="#FFB400"/>
<path fill-rule="evenodd" clip-rule="evenodd" d="M176.646 127.873C176.55 130.052 176.55 132.235 176.646 134.414C176.935 139.704 178.762 145.571 181.167 150.284L55.4553 149.995C53.724 142.397 52.7622 134.606 53.0507 127.873H176.646Z" fill="#FF7A00"/>
<path fill-rule="evenodd" clip-rule="evenodd" d="M181.166 150.284C182.15 152.325 183.342 154.259 184.724 156.055C192.996 166.635 196.555 166.635 202.999 169.906C202.52 171.058 202.135 172.118 201.653 173.08L62.7653 172.791C60.0721 166.924 57.2828 158.652 55.4553 149.996L181.166 150.284Z" fill="#F41E34"/>
<path fill-rule="evenodd" clip-rule="evenodd" d="M201.653 173.08C197.614 182.506 194.343 189.429 191.072 195.009L74.9805 194.721C71.1332 189.046 67.6706 182.793 63.7271 175.002C63.4385 174.329 63.0538 173.559 62.7653 172.791L201.653 173.08Z" fill="#A2359C"/>
<path fill-rule="evenodd" clip-rule="evenodd" d="M161.352 52.658C160.679 57.4672 158.274 63.6229 154.427 67.5664C150.289 71.9909 143.846 76.8 139.998 79.2046C137.882 80.5512 132.399 80.7435 127.88 81.2245C127.303 77.1848 127.207 73.7222 128.457 69.971C130.092 65.5466 132.21 59.1985 135.575 54.7741C139.711 49.2916 144.424 45.5405 147.021 44.1939C150.484 42.4626 156.255 39.8656 161.256 39C161.449 43.4244 162.123 48.426 161.352 52.658Z" fill="#34BE2D"/>
</g>
<defs>
<clipPath id="clip0_33_740">
<rect width="256" height="256" fill="white"/>
</clipPath>
</defs>
</svg>

        </g>
         
        <g transform="translate(300, 0)">
          <svg width="256" height="256" viewBox="0 0 256 256" fill="none" xmlns="http://www.w3.org/2000/svg">
<g clip-path="url(#clip0_33_628)">
<path d="M196 0H60C26.8629 0 0 26.8629 0 60V196C0 229.137 26.8629 256 60 256H196C229.137 256 256 229.137 256 196V60C256 26.8629 229.137 0 196 0Z" fill="#242938"/>
<g clip-path="url(#clip1_33_628)">
<path d="M127.5 41C119.711 60.0976 114.981 72.6074 106.309 91.1373C111.626 96.7737 118.161 103.313 128.76 110.727C117.365 106.037 109.597 101.342 103.788 96.4565C92.6887 119.617 75.2882 152.594 40 216C67.7284 199.992 89.2239 190.118 109.257 186.349C108.4 182.655 107.942 178.64 107.975 174.472L107.996 173.596C108.436 155.826 117.682 142.163 128.632 143.09C139.582 144.018 148.106 159.18 147.666 176.95C147.583 180.297 147.194 183.513 146.534 186.499C166.351 190.377 187.644 200.207 215 216C209.605 206.068 204.773 197.119 200.175 188.592C192.931 182.978 185.38 175.674 169.968 167.764C180.561 170.516 188.153 173.699 194.065 177.249C147.31 90.2001 143.533 78.6253 127.5 41Z" fill="#1793D1"/>
<path d="M176.755 145.015C138.825 93.5323 130.033 52.0391 127.806 42.1328C148.039 88.8013 147.901 89.3736 176.755 145.015Z" fill="white" fill-opacity="0.16568"/>
<path d="M127.821 41.7482C126.848 44.1402 125.9 46.4614 125.002 48.6696C124.006 51.1157 123.059 53.451 122.118 55.7405C121.177 58.03 120.244 60.2643 119.319 62.4696C118.394 64.6751 117.467 66.8554 116.521 69.0492C115.574 71.243 114.622 73.4596 113.615 75.7143C112.609 77.969 111.558 80.2689 110.454 82.657C109.349 85.0452 108.191 87.5185 106.95 90.1125C106.778 90.4718 106.57 90.8807 106.395 91.2447C111.696 96.8591 118.222 103.356 128.761 110.727C117.395 106.05 109.635 101.372 103.831 96.4998C103.53 97.115 103.266 97.6643 102.956 98.2943C102.547 99.1234 102.056 100.066 101.631 100.922C100.885 102.451 100.106 104.022 99.3027 105.643C98.9939 106.257 98.7229 106.788 98.4054 107.416C93.3329 117.596 87.04 129.782 78.9443 144.928C101.138 132.424 125.076 114.384 168.559 129.911C166.379 125.781 164.375 121.909 162.492 118.268C160.61 114.627 158.861 111.217 157.237 107.993C155.614 104.769 154.113 101.729 152.708 98.8497C151.304 95.9705 150.002 93.2529 148.778 90.6465C147.553 88.0402 146.4 85.5323 145.317 83.127C144.234 80.7218 143.201 78.4175 142.22 76.1415C141.238 73.8654 140.298 71.631 139.378 69.4124C138.459 67.1938 137.561 64.9805 136.665 62.7473C136.345 61.9494 136.025 61.1181 135.704 60.312C133.251 54.553 130.732 48.5855 127.821 41.7482Z" fill="url(#paint0_linear_33_628)"/>
</g>
</g>
<defs>
<linearGradient id="paint0_linear_33_628" x1="127.904" y1="61.7314" x2="104.123" y2="133.77" gradientUnits="userSpaceOnUse">
<stop stop-color="white" stop-opacity="0"/>
<stop offset="1" stop-color="white" stop-opacity="0.27451"/>
</linearGradient>
<clipPath id="clip0_33_628">
<rect width="256" height="256" fill="white"/>
</clipPath>
<clipPath id="clip1_33_628">
<rect width="175" height="175" fill="white" transform="translate(40 41)"/>
</clipPath>
</defs>
</svg>

        </g>
         
        <g transform="translate(600, 0)">
          <svg xmlns="http://www.w3.org/2000/svg" width="256" height="256" fill="none" viewBox="0 0 256 256"><rect width="256" height="256" fill="#242938" rx="60"/><path fill="#D10000" d="M146.655 161.923C151.184 202.415 189.673 203.509 206.653 207.887C256.462 217.736 231.558 236.341 211.181 236.341L212.313 239.624L169.296 240.719L204.389 221.02L207.785 229.775C213.445 231.963 250.802 218.831 190.805 213.359C165.9 208.981 150.051 203.509 140.995 192.566L110.43 210.076C102.506 192.566 78.7335 185.999 88.9218 163.017"/><path stroke="#000" stroke-linecap="round" stroke-linejoin="round" stroke-width="1.113" d="M146.655 161.923C151.184 202.415 189.673 203.509 206.653 207.887C256.462 217.736 231.558 236.341 211.181 236.341L212.313 239.624L169.296 240.719L204.389 221.02L207.785 229.775C213.445 231.963 250.802 218.831 190.805 213.359C165.9 208.981 150.051 203.509 140.995 192.566L110.43 210.076C102.506 192.566 78.7335 185.999 88.9218 163.017"/><path fill="gold" stroke="#000" stroke-linecap="round" stroke-linejoin="round" stroke-width="1.113" d="M139.863 185.999C142.127 187.094 145.523 182.716 144.391 180.527L61.7531 121.431C61.7531 118.148 69.6773 111.581 58.357 102.826L59.4891 100.637L44.7727 94.071C47.0367 98.4486 49.3008 99.543 51.5648 107.204L56.093 105.015C60.6211 110.487 60.6211 114.864 56.093 117.053L48.1687 111.581C48.1687 110.487 49.3008 109.392 49.3008 108.298C49.3008 108.298 48.1687 107.204 44.7727 107.204C42.5086 107.204 37.9805 102.826 34.5844 102.826C34.5844 106.109 40.2445 111.581 40.2445 117.053L43.6406 114.864C47.0367 115.959 49.3008 118.148 51.5648 121.431C48.1687 125.808 43.6406 127.997 34.5844 123.619C34.5844 121.431 36.8484 120.336 36.8484 118.148C32.3203 118.148 26.6602 114.864 21 111.581C23.2641 119.242 30.0562 127.997 36.8484 130.186C48.1687 134.563 52.6969 126.903 58.357 126.903L139.863 185.999Z"/><path fill="#D10000" d="M108.166 114.864L74.2055 74.3721C76.4695 68.9002 75.3375 61.2395 74.2055 57.9563C68.5453 39.899 80.9977 31.6911 92.318 22.936C101.374 16.3697 105.902 15.2753 108.166 16.3697C110.43 18.5585 99.1102 25.1248 96.8461 32.7855C96.8461 32.7855 94.582 44.8237 102.506 39.3518C109.298 36.0686 118.355 33.8799 128.543 36.0686C136.467 37.163 148.92 41.5406 156.844 50.2956C180.616 45.9181 167.032 31.6911 164.768 22.936C172.692 16.3697 214.011 56.862 163.636 83.1272C163.636 98.4486 160.24 108.298 150.052 117.053C137.599 126.903 145.523 131.28 147.788 137.846C153.448 156.451 151.184 168.489 128.543 171.772C112.695 173.961 110.43 180.527 97.9781 171.772"/><path stroke="#000" stroke-linecap="round" stroke-linejoin="round" stroke-width="1.113" d="M108.166 114.864L74.2055 74.3721C76.4695 68.9002 75.3375 61.2395 74.2055 57.9563C68.5453 39.899 80.9977 31.6911 92.318 22.936C101.374 16.3697 105.902 15.2753 108.166 16.3697C110.43 18.5585 99.1102 25.1248 96.8461 32.7855C96.8461 32.7855 94.582 44.8237 102.506 39.3518C109.298 36.0686 118.355 33.8799 128.543 36.0686C136.467 37.163 148.92 41.5406 156.844 50.2956C180.616 45.9181 167.032 31.6911 164.768 22.936C172.692 16.3697 214.011 56.862 163.636 83.1272C163.636 98.4486 160.24 108.298 150.052 117.053C137.599 126.903 145.523 131.28 147.788 137.846C153.448 156.451 151.184 168.489 128.543 171.772C112.695 173.961 110.43 180.527 97.9781 171.772"/><path fill="#D10000" d="M102.506 49.2013C103.638 44.8238 92.3179 37.1631 79.8656 60.1452C78.7335 63.4283 74.2054 72.1834 74.2054 72.1834C73.0734 76.5609 71.9413 82.0329 69.6773 84.2216C58.357 95.1655 64.0171 109.392 78.7335 114.864C82.1296 115.959 92.3179 123.619 99.1101 126.903C102.506 129.091 99.1101 136.752 93.4499 135.658C62.8851 129.091 61.7531 149.885 74.2054 153.168L118.355 150.979"/><path stroke="#000" stroke-linecap="round" stroke-linejoin="round" stroke-width="1.113" d="M102.506 49.2013C103.638 44.8238 92.3179 37.1631 79.8656 60.1452C78.7335 63.4283 74.2054 72.1834 74.2054 72.1834C73.0734 76.5609 71.9413 82.0329 69.6773 84.2216C58.357 95.1655 64.0171 109.392 78.7335 114.864C82.1296 115.959 92.3179 123.619 99.1101 126.903C102.506 129.091 99.1101 136.752 93.4499 135.658C62.8851 129.091 61.7531 149.885 74.2054 153.168L118.355 150.979"/><path stroke="#000" stroke-linecap="round" stroke-linejoin="round" stroke-width="1.113" d="M109.298 48.1068C113.826 43.7292 121.751 43.7292 125.147 50.2956C126.279 52.4843 126.279 54.6731 127.411 55.7675"/><path fill="#D10000" d="M76.4695 107.204C82.1296 108.298 82.1296 111.581 88.9218 117.053C100.242 125.808 113.827 118.147 117.223 115.959C121.751 113.77 121.751 110.487 126.279 112.676"/><path stroke="#000" stroke-linecap="round" stroke-linejoin="round" stroke-width="1.67" d="M76.4695 107.204C82.1296 108.298 82.1296 111.581 88.9218 117.053C100.242 125.808 113.827 118.147 117.223 115.959C121.751 113.77 121.751 110.487 126.279 112.676"/><path fill="#D10000" d="M91.186 91.8823C77.6017 84.2216 74.2056 96.2598 79.8657 101.732C80.9978 102.826 84.3938 102.826 86.6579 103.921C88.922 105.015 90.054 100.637 95.7142 103.373C100.242 106.109 102.506 100.637 97.9782 98.4486"/><path stroke="#000" stroke-linecap="round" stroke-linejoin="round" stroke-width="1.113" d="M91.186 91.8823C77.6017 84.2216 74.2056 96.2598 79.8657 101.732C80.9978 102.826 84.3938 102.826 86.6579 103.921C88.922 105.015 90.054 100.637 95.7142 103.373C100.242 106.109 102.506 100.637 97.9782 98.4486"/><path fill="#fff" stroke="#000" stroke-linecap="round" stroke-linejoin="round" stroke-width="1.113" d="M99.1102 54.6733C99.1102 51.3901 92.318 49.2014 84.3937 61.2396C75.3375 75.4666 76.4695 83.1273 80.9977 86.4104C84.3937 88.5992 87.7898 87.5048 91.1859 77.6554C93.45 72.1834 99.1102 57.9564 99.1102 54.6733Z"/><path fill="#fff" stroke="#000" stroke-linecap="round" stroke-linejoin="round" stroke-width="1.113" d="M112.694 53.5788C124.015 51.39 122.883 91.8823 104.77 92.9766C84.3937 94.071 97.9781 56.8619 112.694 53.5788Z"/><path fill="#000" d="M107.034 73.2775C112.694 77.655 105.902 95.1652 97.978 88.5989C92.3179 83.127 100.242 67.8056 107.034 73.2775Z"/><path fill="#000" d="M87.7898 71.0888C93.4499 75.4664 84.3937 89.6934 80.9976 83.1271C77.6015 78.7495 80.9976 66.7113 87.7898 71.0888Z"/><path fill="#fff" d="M84.3936 72.1831C85.5257 72.1831 85.5257 78.7494 84.3936 78.7494C80.9975 78.7494 82.1296 72.1831 84.3936 72.1831Z"/><path fill="#fff" d="M102.506 76.5608C103.638 76.5608 103.638 80.9383 101.374 80.9383C100.242 80.9383 99.1102 76.5608 102.506 76.5608Z"/><path fill="#D10000" d="M104.77 171.772C99.1102 171.772 95.7141 172.867 88.9219 165.206Z"/><path stroke="#000" stroke-linecap="round" stroke-linejoin="round" stroke-width="1.113" d="M104.77 171.772C99.1102 171.772 95.7141 172.867 88.9219 165.206"/><path fill="#D10000" d="M99.1102 165.206C69.6774 167.395 92.318 126.902 114.959 144.413C119.487 147.696 124.015 148.79 130.807 146.601"/><path stroke="#000" stroke-linecap="round" stroke-linejoin="round" stroke-width="1.113" d="M99.1102 165.206C69.6774 167.395 92.318 126.902 114.959 144.413C119.487 147.696 124.015 148.79 130.807 146.601"/><path fill="#D10000" stroke="#000" stroke-linecap="round" stroke-linejoin="round" stroke-width="1.113" d="M94.5821 145.507C97.9782 150.979 86.6579 159.734 79.8657 154.262C73.0735 148.79 91.186 141.13 94.5821 145.507Z"/><path fill="#D10000" stroke="#000" stroke-linecap="round" stroke-linejoin="round" stroke-width="1.113" d="M87.7898 134.563C61.753 131.28 62.8851 149.885 74.2054 153.168C86.6577 156.451 100.242 138.941 87.7898 134.563Z"/><path fill="#D10000" stroke="#000" stroke-linecap="round" stroke-linejoin="round" stroke-width="1.113" d="M80.9977 140.035C82.1297 147.696 65.1492 152.073 61.7532 141.129C59.4891 133.469 78.7336 122.525 80.9977 140.035Z"/><path fill="#D10000" stroke="#000" stroke-linecap="round" stroke-linejoin="round" stroke-width="1.113" d="M84.3937 124.714C91.1859 133.469 74.2054 137.846 69.6773 132.374C60.621 122.525 78.7335 118.147 84.3937 124.714Z"/><path fill="#00B000" stroke="#000" stroke-linecap="round" stroke-linejoin="round" stroke-width="1.113" d="M60.6211 206.793C75.3375 205.698 100.242 205.698 93.45 194.754C91.1859 191.471 92.318 189.283 92.318 187.094C94.582 195.849 112.695 190.377 111.562 201.321L90.0539 229.775L60.6211 206.793Z"/><path fill="#00B000" d="M126.279 195.849C130.807 193.66 135.335 195.849 139.863 192.566C147.787 200.226 147.787 211.17 150.051 213.359L111.562 228.68L86.6577 216.642C97.978 203.509 110.43 208.981 111.562 201.321C113.826 188.188 120.619 191.471 126.279 196.943C126.279 196.943 127.411 207.887 124.015 207.887C116.091 208.981 99.1101 215.548 99.1101 215.548"/><path stroke="#000" stroke-linecap="round" stroke-linejoin="round" stroke-width="1.113" d="M126.279 195.849C130.807 193.66 135.335 195.849 139.863 192.566C147.787 200.226 147.787 211.17 150.051 213.359L111.562 228.68L86.6577 216.642C97.978 203.509 110.43 208.981 111.562 201.321C113.826 188.188 120.619 191.471 126.279 196.943C126.279 196.943 127.411 207.887 124.015 207.887C116.091 208.981 99.1101 215.548 99.1101 215.548"/><path fill="#fff" stroke="#000" stroke-linecap="round" stroke-linejoin="round" stroke-width="1.113" d="M41.3765 212.265C43.6405 208.982 75.3374 200.226 75.3374 213.359L56.0929 223.209L41.3765 212.265Z"/><path fill="#F4FFF4" stroke="#000" stroke-linecap="round" stroke-linejoin="round" stroke-width="1.113" d="M142.127 203.51C142.127 211.17 135.335 210.076 134.203 206.793C131.939 199.132 142.127 198.038 142.127 203.51Z"/><path fill="#fff" d="M67.4133 223.208C39.1125 226.492 39.1125 218.831 39.1125 218.831C39.1125 213.359 39.1125 213.359 41.3766 212.265C44.7727 216.642 64.0172 218.831 73.0735 214.453"/><path stroke="#000" stroke-linecap="round" stroke-linejoin="round" stroke-width="1.113" d="M67.4133 223.208C39.1125 226.492 39.1125 218.831 39.1125 218.831C39.1125 213.359 39.1125 213.359 41.3766 212.265C44.7727 216.642 64.0172 218.831 73.0735 214.453"/><path fill="#fff" stroke="#000" stroke-linecap="round" stroke-linejoin="round" stroke-width="1.113" d="M108.167 224.303C108.167 204.604 75.3376 206.793 68.5454 218.831L83.2618 229.775L108.167 224.303Z"/><path fill="#fff" stroke="#000" stroke-linecap="round" stroke-linejoin="round" stroke-width="1.113" d="M148.92 212.265C151.184 211.17 150.052 215.548 150.052 219.925C127.411 234.152 79.8657 235.247 67.4133 225.397C67.4133 221.02 67.4133 219.925 68.5454 217.736C75.3375 228.68 139.863 224.303 148.92 212.265Z"/><path fill="#D10000" d="M95.7141 199.132L107.034 200.226L95.7141 199.132ZM93.45 202.415L104.77 204.604L93.45 202.415ZM87.7899 204.604L96.8461 206.793L87.7899 204.604ZM78.7336 206.793L92.318 208.982L78.7336 206.793ZM112.695 200.226L126.279 201.321L112.695 200.226ZM111.563 203.51L125.147 205.698L111.563 203.51ZM107.034 206.793L114.959 207.887L107.034 206.793ZM100.242 208.982L109.298 210.076Z"/><path stroke="#0FF" stroke-linecap="round" stroke-linejoin="round" stroke-width="1.113" d="M100.242 208.982L109.298 210.076M95.7141 199.132L107.034 200.226L95.7141 199.132ZM93.45 202.415L104.77 204.604L93.45 202.415ZM87.7899 204.604L96.8461 206.793L87.7899 204.604ZM78.7336 206.793L92.318 208.982L78.7336 206.793ZM112.695 200.226L126.279 201.321L112.695 200.226ZM111.563 203.51L125.147 205.698L111.563 203.51ZM107.034 206.793L114.959 207.887L107.034 206.793Z"/></svg>
        </g>
         
        <g transform="translate(900, 0)">
          <svg width="256" height="256" viewBox="0 0 256 256" fill="none" xmlns="http://www.w3.org/2000/svg">
<g clip-path="url(#clip0_33_879)">
<path d="M196 0H60C26.8629 0 0 26.8629 0 60V196C0 229.137 26.8629 256 60 256H196C229.137 256 256 229.137 256 196V60C256 26.8629 229.137 0 196 0Z" fill="#242938"/>
<g clip-path="url(#clip1_33_879)">
<path d="M215 127.5C215 175.825 175.825 215 127.5 215C79.1751 215 40 175.825 40 127.5C40 79.1751 79.1751 40 127.5 40C175.825 40 215 79.1751 215 127.5Z" fill="#D70751"/>
<path d="M163.86 119.01C163.978 122.192 162.931 123.738 161.984 126.473L160.282 127.319C158.889 130.025 160.42 129.037 159.423 131.187C157.247 133.119 152.83 137.231 151.415 137.608C150.381 137.585 152.115 136.388 152.341 135.921C149.432 137.917 150.006 138.918 145.556 140.134L145.427 139.843C134.456 145.006 119.216 134.776 119.416 120.821C119.3 121.706 119.083 121.485 118.84 121.841C118.274 114.662 122.157 107.451 128.705 104.502C135.109 101.333 142.618 102.632 147.202 106.911C144.684 103.611 139.668 100.111 133.727 100.435C127.904 100.53 122.456 104.23 120.638 108.248C117.656 110.124 117.309 115.486 116.01 116.469C114.26 129.323 119.299 134.874 127.824 141.407C129.162 142.311 128.201 142.449 128.38 143.137C125.548 141.812 122.956 139.81 120.823 137.359C121.955 139.014 123.176 140.624 124.755 141.888C122.083 140.986 118.515 135.418 117.476 135.191C122.079 143.433 136.149 149.645 143.52 146.562C140.109 146.689 135.777 146.632 131.947 145.216C130.334 144.388 128.149 142.674 128.54 142.354C138.597 146.109 148.983 145.196 157.683 138.223C159.898 136.498 162.316 133.565 163.016 133.525C161.963 135.108 163.196 134.286 162.387 135.684C164.59 132.126 161.427 134.235 164.666 129.541L165.862 131.187C165.414 128.232 169.53 124.647 169.111 119.977C170.055 118.549 170.163 121.515 169.162 124.8C170.552 121.156 169.53 120.57 169.885 117.562C170.268 118.573 170.778 119.646 171.038 120.715C170.131 117.192 171.963 114.784 172.419 112.736C171.969 112.539 171.022 114.293 170.803 110.134C170.836 108.327 171.308 109.187 171.488 108.742C171.135 108.537 170.204 107.152 169.639 104.496C170.046 103.87 170.735 106.114 171.293 106.205C170.934 104.094 170.316 102.483 170.289 100.862C168.656 97.4509 169.711 101.318 168.389 99.3974C166.65 93.9792 169.83 98.1397 170.046 95.6795C172.677 99.4922 174.177 105.406 174.869 107.854C174.342 104.868 173.492 101.975 172.453 99.1761C173.255 99.5146 171.164 93.0349 173.495 97.3258C171.007 88.1791 162.856 79.6317 155.356 75.6227C156.271 76.4617 157.429 77.5153 157.015 77.6812C153.283 75.462 153.939 75.2869 153.404 74.3492C150.368 73.1125 150.166 74.4506 148.157 74.3519C142.428 71.3122 141.324 71.6349 136.052 69.7331L136.292 70.8552C132.498 69.5909 131.871 71.332 127.771 70.858C127.522 70.6644 129.085 70.1521 130.373 69.9664C126.704 70.451 126.876 69.242 123.285 70.0994C124.169 69.4791 125.107 69.0668 126.05 68.54C123.059 68.7218 118.906 70.2811 120.188 68.8614C115.308 71.0397 106.641 74.0965 101.777 78.6573L101.625 77.6353C99.3961 80.3102 91.9062 85.6243 91.3096 89.092L90.713 89.2303C89.5554 91.1939 88.8034 93.4184 87.8841 95.4374C86.3682 98.0226 85.661 96.433 85.877 96.8387C82.894 102.886 81.4097 107.967 80.1309 112.137C81.0423 113.5 80.1534 120.345 80.4969 125.822C79.0008 152.879 99.4856 179.147 121.878 185.21C125.159 186.386 130.039 186.344 134.19 186.46C129.294 185.059 128.661 185.718 123.889 184.055C120.447 182.433 119.694 180.582 117.255 178.466L118.22 180.171C113.439 178.479 115.44 178.077 111.549 176.846L112.581 175.501C111.031 175.383 108.476 172.891 107.778 171.507L106.081 171.574C104.045 169.064 102.959 167.25 103.039 165.845L102.491 166.822C101.871 165.757 94.996 157.395 98.5624 159.341C97.9 158.738 97.0189 158.358 96.0641 156.62L96.7898 155.792C95.0763 153.583 93.6315 150.753 93.7422 149.81C94.6575 151.046 95.2923 151.277 95.9219 151.489C91.5875 140.737 91.3438 150.898 88.0632 140.545L88.756 140.49C88.2252 139.685 87.8999 138.817 87.4732 137.962L87.7761 134.953C84.6574 131.35 86.9042 119.616 87.356 113.183C87.6655 110.567 89.9597 107.782 91.7021 103.413L90.6407 103.231C92.6714 99.6913 102.233 89.009 106.663 89.5569C108.809 86.8623 106.237 89.5464 105.817 88.8694C110.53 83.9925 112.012 85.4241 115.192 84.5457C118.621 82.5109 112.249 85.3411 113.874 83.77C119.805 82.2567 118.075 80.3273 125.81 79.5595C126.627 80.0231 123.917 80.2759 123.238 80.8778C128.177 78.4598 138.87 79.0116 145.818 82.2185C153.874 85.9865 162.931 97.1192 163.29 107.593L163.697 107.703C163.491 111.867 164.334 116.683 162.871 121.106L163.86 119.01Z" fill="white"/>
</g>
</g>
<defs>
<clipPath id="clip0_33_879">
<rect width="256" height="256" fill="white"/>
</clipPath>
<clipPath id="clip1_33_879">
<rect width="175" height="175" fill="white" transform="translate(40 40)"/>
</clipPath>
</defs>
</svg>

        </g>
         
        <g transform="translate(1200, 0)">
          <svg xmlns="http://www.w3.org/2000/svg" width="256" height="256" fill="none" viewBox="0 0 256 256"><rect width="256" height="256" fill="#242938" rx="60"/><path fill="#ECEFF1" d="M85.9493 199.926L110.48 213.546H147.576L182.278 187.491L197.834 146.632L161.935 103.405L151.764 79.1268L102.104 80.9032L102.702 94.5228L93.1291 112.287L78.1713 141.303L75.1797 165.581L85.9493 199.926Z"/><path fill="#263238" d="M187.064 114.656C177.491 101.036 169.713 92.7463 165.525 75.5738C161.337 58.4013 166.722 63.1386 163.132 48.3347C161.337 40.6367 158.345 35.3073 155.354 31.1622C151.764 27.0171 147.576 24.6485 145.182 24.0563C139.798 21.0956 127.233 16.3583 111.677 24.6485C95.5223 32.9387 97.3172 50.7033 100.309 86.8248C100.309 89.1934 99.7105 92.1542 98.5139 94.5228C96.1206 99.8522 91.9324 104.589 88.3425 108.735C84.1543 114.656 79.9661 120.578 76.9746 127.091C69.7948 140.711 63.2134 157.883 65.0083 164.397C67.9999 163.805 105.694 220.652 105.694 221.836C108.087 221.244 118.258 221.244 127.233 221.244C139.798 220.652 146.977 220.06 157.149 222.428C157.149 220.652 156.55 218.875 156.55 217.099C156.55 213.546 157.149 210.585 157.747 206.44C158.345 203.479 158.944 200.519 159.542 196.966C153.559 202.295 142.789 208.217 132.618 209.993C123.643 211.769 108.685 208.809 101.505 199.926C102.104 199.926 103.3 199.926 103.899 199.334C105.694 198.742 107.489 198.15 108.087 196.966C109.882 194.005 108.685 191.044 107.489 189.268C106.292 187.491 97.3173 180.977 93.1291 177.425C88.9409 173.872 86.5476 172.095 84.1544 169.727C84.1544 169.727 80.5645 166.174 79.3678 164.989C78.1712 163.805 77.5729 162.621 76.9746 162.028C75.778 159.068 75.1796 155.515 75.778 150.778C76.3763 144.264 78.7695 138.934 81.7611 133.013C82.9577 130.644 85.9493 125.907 85.9493 125.907C85.9493 125.907 75.778 150.778 81.1628 158.476C81.1628 158.476 81.7611 150.778 84.1544 143.08C85.9493 137.75 88.9409 130.052 92.5307 125.907C96.1206 121.762 105.095 106.366 105.694 96.8914C105.694 92.7463 106.292 88.6012 106.292 85.6405C103.899 83.2718 145.781 77.3503 148.174 83.864C148.772 86.2326 157.149 107.55 161.935 118.801C164.328 124.131 167.32 128.868 169.115 134.789C170.91 141.303 172.106 150.185 172.106 159.068C172.106 160.844 172.106 163.805 171.508 166.766C172.705 166.766 196.039 141.895 168.517 121.17C168.517 121.17 185.269 128.868 185.868 144.264C186.466 156.699 181.081 166.766 179.885 168.542C180.483 168.542 192.449 173.872 193.047 173.872C195.441 173.872 200.227 172.095 200.227 172.095C200.826 170.319 202.62 165.581 202.62 163.805C206.809 150.185 196.637 128.276 187.064 114.656V114.656Z"/><path fill="#ECEFF1" d="M111.078 75.5738C115.374 75.5738 118.856 70.2714 118.856 63.7307C118.856 57.1899 115.374 51.8876 111.078 51.8876C106.783 51.8876 103.3 57.1899 103.3 63.7307C103.3 70.2714 106.783 75.5738 111.078 75.5738Z"/><path fill="#ECEFF1" d="M138.002 76.7581C143.62 76.7581 148.174 70.6604 148.174 63.1386C148.174 55.6167 143.62 49.519 138.002 49.519C132.385 49.519 127.831 55.6167 127.831 63.1386C127.831 70.6604 132.385 76.7581 138.002 76.7581Z"/><path fill="#212121" d="M115.424 64.5411C114.927 60.6476 112.663 57.7241 110.368 58.0111C108.074 58.2982 106.616 61.6872 107.114 65.5807C107.611 69.4741 109.874 72.3977 112.169 72.1106C114.464 71.8235 115.921 68.4345 115.424 64.5411Z"/><path fill="#212121" d="M137.404 73.2052C140.709 73.2052 143.387 69.7587 143.387 65.5072C143.387 61.2557 140.709 57.8091 137.404 57.8091C134.1 57.8091 131.421 61.2557 131.421 65.5072C131.421 69.7587 134.1 73.2052 137.404 73.2052Z"/><path fill="#FFC107" d="M216.98 195.781C214.587 194.597 210.398 192.82 206.808 187.491C205.014 184.53 205.612 176.24 202.62 172.687C200.825 170.319 198.432 171.503 197.834 171.503C192.449 172.687 179.884 180.977 171.508 171.503C170.311 170.319 168.516 168.542 165.525 168.542C162.533 168.542 161.337 169.726 160.14 172.095C158.943 174.464 158.943 176.24 158.943 182.162C158.943 186.899 158.943 192.228 158.345 196.373C157.148 206.44 155.354 212.362 155.354 218.283C155.354 224.797 157.148 228.942 159.542 230.718C161.337 232.495 164.328 233.679 170.91 233.679C177.491 233.679 181.679 231.311 185.868 227.165C188.859 224.205 191.252 223.02 199.629 217.099C206.21 212.954 216.382 207.624 218.176 205.848C219.373 204.664 221.168 204.071 221.168 200.518C221.168 197.558 218.775 196.373 216.98 195.781V195.781Z"/><path fill="#FFC107" d="M96.7189 197.558C90.7357 188.083 90.1374 186.307 85.9492 180.385C82.3593 174.464 74.5813 163.213 69.7948 163.213C66.2049 163.213 64.4099 164.989 62.0167 167.358C59.6234 169.726 57.2302 175.056 53.042 178.017C49.4521 180.977 39.2808 180.385 36.8875 183.938C34.4942 187.491 39.2808 192.821 39.2808 201.703C39.2808 205.256 36.2892 207.624 35.6909 209.993C35.0926 212.954 34.4942 214.73 35.6909 217.099C38.0841 220.652 41.0757 221.836 61.4184 225.981C72.188 228.35 82.3593 234.271 88.9408 234.864C95.5222 235.456 106.89 234.864 106.89 218.875C107.489 209.401 102.104 207.032 96.7189 197.558Z"/><path fill="#FFC107" d="M108.087 90.3777C104.497 88.0091 101.505 85.6404 101.505 82.0875C101.505 78.5346 103.899 77.3503 107.489 74.3895C108.087 73.7973 114.668 67.8758 121.25 67.8758C127.831 67.8758 135.609 72.0209 138.601 73.2052C143.986 74.3895 149.37 75.5738 148.772 79.7189C148.174 85.6404 147.576 86.8248 141.592 89.7855C137.404 90.9698 129.626 97.4835 124.241 97.4835C121.848 97.4835 118.258 97.4835 115.865 96.8914C114.07 96.2992 111.078 93.3385 108.087 90.3777V90.3777Z"/><path fill="#634703" d="M106.89 85.6405C108.087 86.8248 109.882 88.0091 111.677 88.6012C112.873 89.1934 114.668 89.7856 114.668 89.7856C117.062 89.7856 118.857 89.7856 120.053 89.7856C123.045 89.7856 127.233 88.6013 131.421 86.2326C135.609 84.4562 136.208 83.2718 139.199 82.0875C142.191 80.3111 145.182 78.5346 143.986 77.9425C142.789 77.3503 141.592 77.9425 137.404 80.3111C133.814 82.6797 130.823 83.864 127.233 85.6405C125.438 86.2326 123.045 87.4169 121.25 87.4169C119.455 87.4169 117.66 87.4169 115.865 87.4169C114.07 87.4169 112.873 86.8248 111.078 86.2326C109.882 85.6405 109.283 85.0483 108.685 85.0483C107.489 84.4562 105.095 82.0875 103.899 81.4954C103.899 81.4954 102.702 81.4954 103.3 82.0875C105.095 83.864 105.694 84.4562 106.89 85.6405Z"/><path fill="#634703" d="M124.84 72.613C125.438 73.7973 126.635 73.7973 127.233 74.3895C127.831 74.9816 128.429 74.9816 128.429 74.9816C129.028 74.3895 128.429 73.2052 127.831 73.2052C127.831 72.0209 124.84 72.0209 124.84 72.613V72.613Z"/><path fill="#634703" d="M115.267 73.7973C115.267 74.3895 116.463 74.9816 116.463 74.3895C117.062 73.7973 117.66 73.2052 118.258 73.2052C119.455 72.613 118.856 72.0209 117.062 72.0209C115.865 72.613 115.865 73.2052 115.267 73.7973V73.7973Z"/><path fill="#455A64" d="M173.303 178.609C173.303 179.201 173.303 179.793 173.303 180.385C174.5 182.754 177.491 183.346 179.884 183.346C183.474 183.346 187.064 180.977 188.859 178.609C188.859 178.017 189.457 177.424 190.056 176.832C191.252 175.056 191.851 173.872 192.449 173.279C192.449 173.279 191.851 172.687 191.851 172.095C191.252 170.911 189.457 169.726 187.064 169.134C185.269 168.542 182.278 167.95 181.081 167.95C175.696 167.358 172.705 169.134 170.91 170.911C170.91 170.911 171.508 170.911 171.508 171.503C172.705 172.687 173.303 173.872 173.303 175.648C173.901 176.832 173.303 177.424 173.303 178.609V178.609Z"/></svg>
        </g>
         
        <g transform="translate(1500, 0)">
          <svg width="256" height="256" viewBox="0 0 256 256" fill="none" xmlns="http://www.w3.org/2000/svg">
<g clip-path="url(#clip0_33_883)">
<path d="M196 0H60C26.8629 0 0 26.8629 0 60V196C0 229.137 26.8629 256 60 256H196C229.137 256 256 229.137 256 196V60C256 26.8629 229.137 0 196 0Z" fill="#242938"/>
<g clip-path="url(#clip1_33_883)">
<path d="M156.485 137.52C167.86 137.52 184.332 135.152 184.332 121.579C184.331 120.54 184.24 119.504 184.059 118.481L177.325 88.9664C175.778 82.4986 174.412 79.4924 163.037 73.8445C154.21 69.2897 135.008 61.9109 129.275 61.9109C123.905 61.9109 122.358 68.7431 116.079 68.7431C109.982 68.7431 105.523 63.6417 99.7895 63.6417C94.3293 63.6417 90.7801 67.3766 88.05 75.0287C88.05 75.0287 80.4057 96.6184 79.4047 99.8068C79.2543 100.371 79.1929 100.955 79.2227 101.538C79.1317 109.918 112.166 137.429 156.485 137.52ZM186.061 127.136C187.608 134.605 187.608 135.425 187.608 136.336C187.608 149.09 173.32 156.195 154.483 156.195C111.893 156.195 74.6725 131.235 74.6725 114.747C74.6683 112.46 75.1329 110.196 76.0376 108.097C60.7489 108.825 40.9102 111.558 40.9102 129.049C40.9102 157.744 108.799 193.089 162.491 193.089C203.716 193.089 214.09 174.414 214.09 159.657C214.09 148.088 204.08 134.97 186.061 127.136Z" fill="#EE0000"/>
<path d="M186.061 127.136C187.608 134.606 187.608 135.425 187.608 136.336C187.608 149.09 173.32 156.195 154.483 156.195C111.893 156.195 74.6724 131.235 74.6724 114.747C74.6682 112.46 75.1328 110.196 76.0374 108.097L79.4046 99.8069C79.2542 100.371 79.1928 100.955 79.2226 101.538C79.2226 109.919 112.257 137.429 156.485 137.429C167.86 137.429 184.332 135.061 184.332 121.488C184.331 120.449 184.24 119.413 184.059 118.39L186.061 127.136Z" fill="black"/>
</g>
</g>
<defs>
<clipPath id="clip0_33_883">
<rect width="256" height="256" fill="white"/>
</clipPath>
<clipPath id="clip1_33_883">
<rect width="175" height="133" fill="white" transform="translate(40 61)"/>
</clipPath>
</defs>
</svg>

        </g>
         
        <g transform="translate(1800, 0)">
          <svg width="256" height="256" viewBox="0 0 256 256" fill="none" xmlns="http://www.w3.org/2000/svg">
<g clip-path="url(#clip0_33_899)">
<path d="M196 0H60C26.8629 0 0 26.8629 0 60V196C0 229.137 26.8629 256 60 256H196C229.137 256 256 229.137 256 196V60C256 26.8629 229.137 0 196 0Z" fill="#242938"/>
<path d="M127.5 206.25C170.992 206.25 206.25 170.992 206.25 127.5C206.25 84.0076 170.992 48.75 127.5 48.75C84.0076 48.75 48.75 84.0076 48.75 127.5C48.75 170.992 84.0076 206.25 127.5 206.25Z" fill="#F47421"/>
<path d="M127.5 165.694C148.594 165.694 165.694 148.594 165.694 127.5C165.694 106.406 148.594 89.3062 127.5 89.3062C106.406 89.3062 89.3062 106.406 89.3062 127.5C89.3062 148.594 106.406 165.694 127.5 165.694Z" stroke="white" stroke-width="8.55"/>
<path d="M73.9499 142.266C82.1048 142.266 88.7157 135.655 88.7157 127.5C88.7157 119.345 82.1048 112.734 73.9499 112.734C65.795 112.734 59.1841 119.345 59.1841 127.5C59.1841 135.655 65.795 142.266 73.9499 142.266Z" fill="#F47421"/>
<path d="M157.25 127.5H174.75H157.25Z" fill="black"/>
<path d="M157.25 127.5H174.75" stroke="#F47421" stroke-width="3.2378"/>
<path d="M73.95 138.013C79.7562 138.013 84.4631 133.306 84.4631 127.5C84.4631 121.694 79.7562 116.987 73.95 116.987C68.1439 116.987 63.437 121.694 63.437 127.5C63.437 133.306 68.1439 138.013 73.95 138.013Z" fill="white"/>
<path d="M141.487 73.7415C137.41 80.8039 139.83 89.8345 146.892 93.9119C153.954 97.9894 162.985 95.5697 167.062 88.5073C171.14 81.4449 168.72 72.4143 161.658 68.3368C154.595 64.2594 145.565 66.6791 141.487 73.7415Z" fill="#F47421"/>
<path d="M112.625 153.264L103.875 168.42L112.625 153.264Z" fill="black"/>
<path d="M112.625 153.264L103.875 168.42" stroke="#F47421" stroke-width="3.2378"/>
<path d="M145.17 75.8679C142.267 80.8962 143.99 87.3259 149.018 90.229C154.046 93.1321 160.476 91.4092 163.379 86.3809C166.282 81.3526 164.559 74.9229 159.531 72.0198C154.503 69.1168 148.073 70.8396 145.17 75.8679Z" fill="white"/>
<path d="M167.062 166.493C162.985 159.43 153.954 157.011 146.892 161.088C139.829 165.166 137.41 174.196 141.487 181.259C145.565 188.321 154.595 190.741 161.658 186.663C168.72 182.586 171.14 173.555 167.062 166.493Z" fill="#F47421"/>
<path d="M112.625 101.736L103.875 86.5804L112.625 101.736Z" fill="black"/>
<path d="M112.625 101.736L103.875 86.5804" stroke="#F47421" stroke-width="3.2378"/>
<path d="M163.379 168.619C160.476 163.591 154.047 161.868 149.018 164.771C143.99 167.674 142.267 174.104 145.17 179.132C148.073 184.161 154.503 185.883 159.531 182.98C164.56 180.077 166.282 173.648 163.379 168.619Z" fill="white"/>
</g>
<defs>
<clipPath id="clip0_33_899">
<rect width="256" height="256" fill="white"/>
</clipPath>
</defs>
</svg>

        </g>
         
        <g transform="translate(2100, 0)">
          <svg width="256" height="256" viewBox="0 0 256 256" fill="none" xmlns="http://www.w3.org/2000/svg">
<g clip-path="url(#clip0_33_480)">
<path d="M196 0H60C26.8629 0 0 26.8629 0 60V196C0 229.137 26.8629 256 60 256H196C229.137 256 256 229.137 256 196V60C256 26.8629 229.137 0 196 0Z" fill="#242938"/>
<path d="M40 65.6631L110.968 55.9983L111 124.453L40.0656 124.857L40 65.6631ZM110.935 132.34L110.99 200.855L40.0557 191.102L40.0517 131.881L110.935 132.34ZM119.537 54.7335L213.636 41V123.582L119.537 124.33V54.7335ZM213.658 132.984L213.636 215.195L119.537 201.914L119.406 132.831L213.658 132.984Z" fill="#00ADEF"/>
</g>
<defs>
<clipPath id="clip0_33_480">
<rect width="256" height="256" fill="white"/>
</clipPath>
</defs>
</svg>

        </g>
         
        <g transform="translate(2400, 0)">
          undefined
        </g>
        
  </svg>
  