
  <svg width="835.5" height="104.25" viewBox="0 0 4456 556" fill="none" xmlns="http://www.w3.org/2000/svg" xmlns:xlink="http://www.w3.org/1999/xlink" version="1.1">
    
        <g transform="translate(0, 0)">
          <svg xmlns="http://www.w3.org/2000/svg" width="256" height="256" fill="none" viewBox="0 0 256 256"><rect width="256" height="256" fill="#242938" rx="60"/><path fill="url(#paint0_linear_159_730)" d="M94.6743 34.0023H153.856L92.4196 216.032C91.7882 217.902 90.586 219.528 88.9824 220.679C87.3788 221.831 85.4545 222.45 83.4803 222.451H37.4223C35.9265 222.451 34.4522 222.095 33.1213 221.412C31.7904 220.729 30.6411 219.74 29.7687 218.525C28.8962 217.31 28.3256 215.905 28.104 214.425C27.8824 212.946 28.0162 211.435 28.4943 210.018L85.7327 40.4209C86.3639 38.5497 87.5662 36.9236 89.1703 35.7717C90.7744 34.6198 92.6995 34.0001 94.6743 34V34.0023Z"/><path fill="#0078D4" d="M180.674 156.095H86.8261C85.9536 156.094 85.101 156.356 84.3795 156.847C83.6579 157.337 83.1008 158.034 82.7807 158.845C82.4606 159.657 82.3923 160.546 82.5848 161.397C82.7773 162.248 83.2217 163.022 83.86 163.616L144.165 219.903C145.92 221.54 148.232 222.451 150.633 222.451H203.774L180.674 156.095Z"/><path fill="url(#paint1_linear_159_730)" d="M94.6745 34.0023C92.6781 33.9946 90.7315 34.6255 89.1192 35.8028C87.5068 36.98 86.3131 38.642 85.7125 40.5459L28.5649 209.863C28.0546 211.286 27.8944 212.81 28.0979 214.308C28.3013 215.805 28.8624 217.232 29.7337 218.466C30.6051 219.701 31.7609 220.708 33.1036 221.401C34.4463 222.095 35.9362 222.455 37.4474 222.451H84.6942C86.4539 222.136 88.0986 221.36 89.4603 220.202C90.822 219.044 91.8519 217.546 92.4448 215.859L103.841 182.273L144.549 220.241C146.255 221.652 148.395 222.433 150.608 222.451H203.551L180.331 156.096L112.642 156.112L154.07 34.0023H94.6745Z"/><path fill="url(#paint2_linear_159_730)" d="M170.264 40.4118C169.634 38.5435 168.434 36.9201 166.832 35.7702C165.23 34.6204 163.308 34.002 161.336 34.0022H95.3792C97.3508 34.0023 99.2727 34.6208 100.874 35.7707C102.476 36.9205 103.677 38.5437 104.307 40.4118L161.548 210.016C162.026 211.433 162.16 212.944 161.939 214.424C161.718 215.904 161.147 217.309 160.275 218.525C159.402 219.74 158.253 220.73 156.922 221.413C155.591 222.096 154.116 222.453 152.62 222.453H218.579C220.075 222.452 221.55 222.096 222.88 221.413C224.211 220.729 225.36 219.739 226.233 218.524C227.105 217.308 227.675 215.903 227.896 214.423C228.118 212.944 227.984 211.433 227.505 210.016L170.264 40.4118Z"/><defs><linearGradient id="paint0_linear_159_730" x1="116.244" x2="54.783" y1="47.967" y2="229.54" gradientUnits="userSpaceOnUse"><stop stop-color="#114A8B"/><stop offset="1" stop-color="#0669BC"/></linearGradient><linearGradient id="paint1_linear_159_730" x1="135.444" x2="121.227" y1="132.585" y2="137.392" gradientUnits="userSpaceOnUse"><stop stop-opacity=".3"/><stop offset=".071" stop-opacity=".2"/><stop offset=".321" stop-opacity=".1"/><stop offset=".623" stop-opacity=".05"/><stop offset="1" stop-opacity="0"/></linearGradient><linearGradient id="paint2_linear_159_730" x1="127.625" x2="195.091" y1="42.671" y2="222.414" gradientUnits="userSpaceOnUse"><stop stop-color="#3CCBF4"/><stop offset="1" stop-color="#2892DF"/></linearGradient></defs></svg>
        </g>
         
        <g transform="translate(300, 0)">
          <svg xmlns="http://www.w3.org/2000/svg" width="256" height="256" fill="none" viewBox="0 0 256 256"><rect width="256" height="256" fill="#242938" rx="60"/><path fill="#242938" fill-rule="evenodd" d="M203.819 68.8354L140.679 31.3552C133.143 26.8816 123.854 26.8816 116.318 31.3552L53.1774 68.8354C45.6434 73.3091 41 81.575 41 90.5223V165.483C41 174.428 45.6434 182.698 53.1796 187.172L116.32 224.645C120.088 226.883 124.29 227.999 128.499 227.999C132.706 227.999 136.909 226.883 140.677 224.645L203.817 187.172C211.353 182.698 215.999 174.428 215.999 165.483V90.5223C215.999 81.575 211.353 73.3091 203.819 68.8354Z" clip-rule="evenodd"/><path fill="#fff" fill-rule="evenodd" d="M118.527 220.808L55.3866 183.334C49.2108 179.668 45.3744 172.828 45.3744 165.482V90.5234C45.3744 83.1768 49.2109 76.3374 55.3844 72.673L118.527 35.1928C121.554 33.3958 125.002 32.4455 128.499 32.4455C131.994 32.4455 135.442 33.3958 138.472 35.1928L201.612 72.673C206.816 75.7619 210.326 81.1109 211.313 87.1103C209.219 82.6411 204.496 81.4262 198.993 84.6409L139.259 121.537C131.811 125.891 126.319 130.777 126.314 139.758V213.362C126.31 218.74 128.482 222.223 131.818 223.233C130.722 223.423 129.617 223.555 128.499 223.555C125.002 223.555 121.554 222.605 118.527 220.808ZM203.819 68.8343L140.679 31.3563C136.911 29.1184 132.704 28.0005 128.499 28.0005C124.293 28.0005 120.086 29.1184 116.318 31.3563L53.1774 68.8343C45.6434 73.308 41 81.5761 41 90.5234V165.482C41 174.427 45.6434 182.697 53.1796 187.171L116.32 224.646C120.09 226.882 124.293 228 128.499 228C132.706 228 136.909 226.882 140.677 224.646L203.819 187.171C211.355 182.697 215.999 174.427 215.999 165.482V90.5234C215.999 81.5761 211.355 73.308 203.819 68.8343Z" clip-rule="evenodd"/><path fill="#47B353" fill-rule="evenodd" d="M187.267 172.729L171.545 182.139C171.128 182.382 170.822 182.655 170.819 183.156V187.27C170.819 187.773 171.157 187.982 171.573 187.737L187.539 178.034C187.955 177.791 188.019 177.326 188.022 176.825V173.196C188.022 172.696 187.684 172.486 187.267 172.729Z" clip-rule="evenodd"/><path fill="#242938" fill-rule="evenodd" d="M153.788 138.098C154.297 137.84 154.716 138.157 154.723 138.823L154.776 144.262C157.053 143.356 159.031 143.114 160.823 143.528C161.212 143.632 161.384 144.161 161.225 144.789L160.028 149.609C159.935 149.973 159.73 150.341 159.483 150.57C159.379 150.672 159.273 150.751 159.168 150.804C159.007 150.886 158.848 150.912 158.696 150.881C157.878 150.696 155.933 150.271 152.873 151.821C149.663 153.446 148.54 156.235 148.562 158.305C148.589 160.777 149.857 161.526 154.235 161.601C160.069 161.698 162.59 164.247 162.651 170.123C162.711 175.893 159.631 182.089 154.919 185.886L155.023 191.27C155.029 191.918 154.608 192.661 154.099 192.919L150.91 194.756C150.399 195.014 149.98 194.696 149.973 194.048L149.918 188.752C147.187 189.887 144.419 190.161 142.651 189.451C142.318 189.321 142.175 188.829 142.307 188.269L143.463 183.401C143.555 183.017 143.758 182.633 144.034 182.389C144.131 182.294 144.232 182.221 144.333 182.17C144.516 182.078 144.695 182.058 144.847 182.115C146.752 182.757 149.189 182.457 151.532 181.271C154.509 179.765 156.5 176.729 156.469 173.713C156.44 170.976 154.959 169.839 151.356 169.812C146.77 169.825 142.495 168.921 142.424 162.17C142.367 156.612 145.257 150.828 149.832 147.171L149.775 141.736C149.768 141.068 150.176 140.333 150.701 140.069L153.788 138.098Z" clip-rule="evenodd"/></svg>
        </g>
         
        <g transform="translate(600, 0)">
          <svg xmlns="http://www.w3.org/2000/svg" width="256" height="256" fill="none" viewBox="0 0 256 256"><rect width="256" height="256" fill="#242938" rx="60"/><g clip-path="url(#clip0_4_272)"><path fill="#fff" d="M79 171.75H211.356V135.125L186.212 120.706L181.875 118.831L79 119.537V171.75Z"/><path fill="#F38020" d="M165.575 166.887C166.806 162.669 166.338 158.8 164.288 155.925C162.413 153.287 159.244 151.762 155.438 151.587L83.2813 150.65C82.8125 150.65 82.4063 150.412 82.1688 150.062C81.9313 149.712 81.875 149.25 81.9938 148.775C82.2313 148.069 82.9313 147.544 83.6938 147.487L156.494 146.55C165.119 146.137 174.494 139.162 177.769 130.612L181.931 119.769C182.115 119.323 182.158 118.833 182.056 118.362C177.369 97.1437 158.431 81.3187 135.806 81.3187C114.931 81.3187 97.2438 94.8 90.9063 113.506C86.8 110.456 81.5313 108.819 75.9563 109.344C65.9313 110.344 57.8313 118.369 56.9063 128.394C56.6634 130.887 56.8408 133.403 57.4313 135.837C49.5447 136.051 42.0537 139.337 36.5556 144.995C31.0574 150.653 27.9874 158.236 28 166.125C28 167.587 28.125 169.062 28.2938 170.519C28.4188 171.225 29 171.75 29.7 171.75H162.875C163.258 171.743 163.629 171.614 163.934 171.383C164.24 171.151 164.464 170.829 164.575 170.462L165.575 166.887V166.887Z"/><path fill="#FAAE40" d="M188.55 120.519L186.55 120.581C186.081 120.581 185.675 120.931 185.487 121.394L182.675 131.181C181.444 135.4 181.912 139.269 183.962 142.144C185.837 144.781 189.006 146.306 192.812 146.481L208.169 147.419C208.637 147.419 209.044 147.656 209.281 148.006C209.519 148.356 209.575 148.881 209.456 149.294C209.219 150 208.519 150.525 207.756 150.581L191.756 151.519C183.081 151.931 173.756 158.906 170.481 167.456L169.306 170.444C169.069 171.031 169.481 171.619 170.119 171.619H225.1C225.418 171.623 225.729 171.522 225.983 171.331C226.238 171.14 226.422 170.869 226.506 170.562C227.481 167.096 227.983 163.513 228 159.912C227.97 149.465 223.802 139.454 216.409 132.072C209.015 124.69 198.998 120.538 188.55 120.525"/></g><defs><clipPath id="clip0_4_272"><rect width="200" height="200" fill="#fff" transform="translate(28 28)"/></clipPath></defs></svg>
        </g>
         
        <g transform="translate(900, 0)">
          <svg width="256" height="256" viewBox="0 0 256 256" fill="none" xmlns="http://www.w3.org/2000/svg">
<rect width="256" height="256" rx="60" fill="#0277BD"/>
<path d="M53.7527 102.651L56.6155 134.593H128.096V102.651H53.7527Z" fill="#EBEBEB"/>
<path d="M128.095 38H127.985H48L50.9036 69.9423H128.095V38Z" fill="#EBEBEB"/>
<path d="M128.095 218.841V185.608L127.955 185.645L92.3813 176.04L90.1072 150.564H72.821H58.0425L62.5175 200.718L127.948 218.882L128.095 218.841Z" fill="#EBEBEB"/>
<path d="M167.318 134.593L163.61 176.019L127.985 185.635V218.866L193.468 200.718L193.948 195.321L201.454 111.229L202.233 102.651L208 38H127.985V69.9423H172.994L170.088 102.651H127.985V134.593H167.318Z" fill="white"/>
</svg>

        </g>
         
        <g transform="translate(1200, 0)">
          <svg xmlns="http://www.w3.org/2000/svg" width="256" height="256" fill="none" viewBox="0 0 256 256"><rect width="256" height="256" fill="#2396ED" rx="60"/><path fill="#fff" d="M141.187 122.123H161.904V103.379H141.187V122.123ZM116.525 122.123H137.241V103.379H116.525V122.123ZM92.3554 122.123H113.072V103.379H92.3554V122.123ZM68.1859 122.123H88.4093V103.379H68.1859V122.123ZM43.5233 122.123H64.2399V103.379H43.5233V122.123ZM68.1859 99.4333H88.4093V80.6896H68.1859V99.4333ZM92.3554 99.4333H113.072V80.6896H92.3554V99.4333ZM116.525 99.4333H137.241V80.6896H116.525V99.4333ZM116.525 76.7436H137.241V58H116.525V76.7436ZM228 113.738C228 113.738 219.121 105.352 200.871 108.312C198.898 94.0075 183.607 85.6222 183.607 85.6222C183.607 85.6222 169.303 102.886 179.661 122.123C176.702 123.603 171.769 125.576 164.37 125.576H28.7257C26.2594 134.948 26.2594 197.097 94.3284 197.097C143.16 197.097 179.661 174.408 196.925 132.974C222.574 134.948 228 113.738 228 113.738Z"/></svg>
        </g>
         
        <g transform="translate(1500, 0)">
          <svg width="256" height="256" viewBox="0 0 256 256" fill="none" xmlns="http://www.w3.org/2000/svg">
<rect width="256" height="256" rx="60" fill="#242938"/>
<path d="M173.5 98H121.25C121.5 99.25 122 100.5 122.25 101.5C124 107.5 125 113.75 125.5 120.25C125.75 122.75 125.75 125.5 125.75 128C125.75 130.5 125.75 133.25 125.5 135.75C125 142.25 124 148.5 122.25 154.5C122 155.75 121.5 157 121.25 158H173.5C190 158 203.25 144.5 203.25 128C203.25 111.5 190 98 173.5 98Z" fill="#00A9E5"/>
<path d="M125.5 135.75C125.75 133.25 125.75 130.5 125.75 128C125.75 125.5 125.75 122.75 125.5 120.25C125 113.75 124 107.5 122.25 101.5C122 100.25 121.5 99 121.25 98H40.5C37.5 107.5 36 117.5 36 128C36 138.5 37.5 148.5 40.5 158H121.25C121.5 156.75 122 155.5 122.25 154.5C124 148.5 125 142.25 125.5 135.75Z" fill="#353535"/>
<path d="M182.5 168H117.5C115.5 172.5 113.25 176.75 110.75 180.75C107 187 102.5 192.5 97.5001 197.75C95.7501 199.5 94.0001 201 92.2501 202.75C88.7501 206 84.7501 208.75 80.7501 211.5C96.5001 222 115.5 228 135.75 228C170.5 228 201 210.25 219 183.5C209.75 174 196.75 168 182.5 168Z" fill="#00BFB3"/>
<path d="M110.75 180.75C113.25 176.75 115.5 172.5 117.5 168H44.25C52 185.75 64.75 201 81 211.5C85 208.75 88.75 206 92.5 202.75C94.25 201.25 96 199.5 97.75 197.75C102.5 192.75 107 187 110.75 180.75Z" fill="#019B8F"/>
<path d="M97.5 58.25C95.75 56.5 94 55 92.25 53.25C88.75 50 84.75 47.25 80.75 44.5C64.75 55 52 70.25 44 88H117.5C115.5 83.5 113 79 110.5 75C107 68.75 102.5 63.25 97.5 58.25Z" fill="#F9B110"/>
<path d="M135.75 28C115.5 28 96.5001 34 80.7501 44.5C84.7501 47.25 88.5001 50 92.2501 53.25C94.0001 54.75 95.7501 56.5 97.5001 58.25C102.5 63.5 107 69 110.75 75.25C113.25 79.25 115.5 83.5 117.5 88H182.5C196.75 88 209.75 82 219 72.5C201 45.75 170.5 28 135.75 28Z" fill="#FED10A"/>
</svg>

        </g>
         
        <g transform="translate(1800, 0)">
          <svg xmlns="http://www.w3.org/2000/svg" width="256" height="256" fill="none" viewBox="0 0 256 256"><rect width="256" height="256" fill="#242938" rx="60"/><path fill="#fff" d="M228 182.937C225.089 184.04 221.875 184.037 218.965 182.931C216.056 181.824 213.652 179.69 212.209 176.932C203.146 163.365 193.138 150.41 183.519 137.177L179.348 131.617C167.894 146.963 156.44 161.697 145.987 176.988C144.625 179.624 142.352 181.675 139.59 182.759C136.828 183.844 133.766 183.887 130.975 182.882L173.955 125.223L133.977 73.1236C136.855 72.0845 140.003 72.0702 142.89 73.0832C145.777 74.0962 148.226 76.0744 149.824 78.6838C159.109 92.2506 169.396 105.206 179.626 118.94C189.913 105.317 200.088 92.3062 209.596 78.8506C210.965 76.2574 213.24 74.258 215.988 73.2328C218.735 72.2076 221.764 72.2281 224.497 73.2904L208.984 93.8631C202.034 103.037 195.195 112.267 187.967 121.219C187.384 121.741 186.918 122.379 186.599 123.093C186.28 123.807 186.115 124.58 186.115 125.362C186.115 126.143 186.28 126.916 186.599 127.63C186.918 128.344 187.384 128.982 187.967 129.504C201.256 147.13 214.433 164.811 228 182.937V182.937Z"/><path fill="#fff" d="M28 124.5C29.1676 118.94 29.8905 112.879 31.5029 107.208C41.122 73.0129 80.3214 58.7788 107.288 79.9632C123.079 92.3624 127.027 109.933 126.249 129.727H37.2855C35.8399 165.09 61.3611 186.441 93.9994 175.543C99.2938 173.649 104.033 170.467 107.79 166.283C111.547 162.099 114.202 157.045 115.517 151.578C117.241 146.018 120.021 145.073 125.303 146.685C124.433 153.454 122.04 159.938 118.303 165.649C114.567 171.36 109.584 176.149 103.73 179.657C94.0573 184.947 82.96 187.042 72.0247 185.644C61.0894 184.246 50.8763 179.426 42.8457 171.873C34.9011 162.94 30.0973 151.654 29.1676 139.735C29.1676 137.845 28.4448 135.954 28.0556 134.175C28.0185 130.876 28 127.651 28 124.5ZM37.3967 122.109H117.853C117.352 96.4769 101.172 78.2951 79.5986 78.1283C55.5785 77.7947 38.3976 95.5873 37.3411 121.998L37.3967 122.109Z"/></svg>
        </g>
         
        <g transform="translate(2100, 0)">
          <svg width="256" height="256" viewBox="0 0 256 256" fill="none" xmlns="http://www.w3.org/2000/svg">
<rect width="256" height="256" rx="60" fill="#242938"/>
<path d="M89.7778 193.926C82.5397 188.233 74.8187 182.775 69.5426 175.089C58.4409 161.535 49.893 145.842 44.0494 129.352C40.5173 118.628 39.3076 107.132 34.7543 96.8229C29.9911 89.3355 35.5705 81.1506 43.772 78.7706C47.4235 78.0698 53.8439 74.6256 46.0938 77.0873C39.1456 82.1851 38.4732 72.46 45.598 71.8441C50.4604 71.1978 52.2503 67.2173 50.5875 63.634C45.368 60.2303 63.2441 56.4895 54.2496 51.4107C44.8797 41.3017 67.356 39.3557 61.8107 50.8365C60.4834 59.6647 77.5161 49.2184 73.5641 59.4131C77.5809 64.3089 88.6059 60.5274 88.3324 67.3958C94.1838 67.798 96.192 72.7214 101.685 73.0993C107.378 75.6702 117.698 77.6961 119.635 84.1113C113.987 88.5828 100.909 74.875 100.28 87.2525C101.986 105.537 101.552 124.373 108.242 141.785C111.406 152.328 119.077 160.628 126.004 168.839C132.633 176.881 141.611 182.543 150.762 187.31C158.79 191.096 167.444 193.607 176.193 195.182C179.741 192.468 186.006 182.378 191.542 186.633C191.804 191.414 180.555 196.627 191.012 196.098C197.153 194.246 201.412 200.848 206.469 194.893C211.128 200.411 225.833 191.367 222.518 202.647C218.036 205.539 211.498 203.791 207.009 207.769C199.606 204.072 193.713 211.078 185.518 210.192C176.417 211.822 167.158 212.48 157.931 212.494C142.794 211.298 127.336 210.794 112.936 205.524C104.824 203.167 96.9075 198.547 89.7778 193.926V193.926ZM102.562 199.465C110.483 202.891 118.229 206.501 126.91 207.59C140.683 209.506 154.906 212.452 168.728 209.765C162.472 206.94 156.005 210.865 149.772 207.745C142.298 209.353 134.276 207.335 126.678 206.341C118.036 202.492 108.711 199.846 100.619 194.849C90.5074 191.156 105.848 199.586 108.579 200.268C114.9 203.856 101.628 198.429 99.7569 196.938C94.4627 193.968 93.788 194.589 99.2327 197.605C100.329 198.246 101.413 198.919 102.562 199.465V199.465ZM87.4891 188.813C95.165 191.657 87.4552 183.416 83.9378 183.894C82.3794 181.191 77.9838 179.483 81.0845 178.03C75.507 179.967 75.2418 170.667 72.6201 171.996C66.7196 170.133 70.3236 163.532 63.2951 159.479C62.6535 155.208 56.3119 151.504 54.2892 145.062C53.3959 141.764 47.1246 132.292 50.977 141.107C54.2572 149.593 60.0284 156.86 64.8312 164.118C68.5605 171.029 72.9641 178.252 79.7559 182.564C82.0454 184.76 84.2559 188.125 87.4891 188.813ZM65.3763 164.535C65.6442 163.376 66.7801 167.044 65.3763 164.535V164.535ZM96.6817 192.222C98.3815 191.461 94.2375 191.263 96.6817 192.222V192.222ZM100.849 193.742C100.417 191.643 98.9464 194.915 100.849 193.742V193.742ZM106.064 195.917C108.547 193.553 102.237 194.427 106.064 195.917V195.917ZM115.004 200.9C116.513 198.669 110.174 200.058 115.004 200.9V200.9ZM97.8376 188.933C101.694 186.438 92.8561 188.899 97.8376 188.933V188.933ZM101.75 190.884C101.641 189.565 100.356 191.475 101.75 190.884V190.884ZM121.306 203.09C124.449 205.074 139.663 207.438 130.137 203.903C128.543 204.239 112.472 199.358 121.306 203.09ZM90.2609 178.911C89.9552 177.588 85.3813 177.451 90.2609 178.911V178.911ZM99.3646 184.217C101.734 182.565 94.4471 182.942 99.3646 184.217V184.217ZM107.022 188.912C110.422 187.63 101.507 187.624 107.022 188.912V188.912ZM86.5564 174.877C90.2453 177.706 101.433 175.239 92.2057 173.188C88.0058 170.949 78.5402 169.417 84.9922 174.538L86.5564 174.877L86.5564 174.877ZM112.209 190.533C113.745 187.915 105.765 189.038 112.209 190.533V190.533ZM104.414 184.338C113.434 186.89 96.8286 178.634 102.188 183.399L103.376 183.937L104.414 184.338L104.414 184.338ZM120.042 193.371C128.585 193.453 112.326 192.193 120.042 193.371V193.371ZM83.2695 169.934C82.9359 168.343 81.1614 170.068 83.2695 169.934V169.934ZM134.492 201.477C134.72 198.603 131.705 203.615 134.492 201.477V201.477ZM97.8478 178.862C97.3311 177.349 95.1786 178.8 97.8478 178.862V178.862ZM84.0797 168.936C88.984 168.641 77.3653 166.775 84.0797 168.936V168.936ZM67.7695 158.393C67.1591 156.042 62.4328 154.167 67.7695 158.393V158.393ZM110.588 185.567C109.689 184.542 110.165 185.791 110.588 185.567V185.567ZM137.239 201.922C137.154 200.356 135.788 202.514 137.239 201.922V201.922ZM108.229 183.131C108.709 181.114 104.047 182.52 108.229 183.131V183.131ZM88.374 170.548C92.0226 170.157 82.5292 168.081 88.374 170.548V170.548ZM121.96 191.418C127.646 189.165 116.419 190.318 121.96 191.418V191.418ZM104.49 179.559C111.043 180.404 96.6934 175.102 103.052 179.084L104.49 179.559L104.49 179.559V179.559ZM127.264 193.562C133.382 189.904 131.365 202.126 137.644 194.594C143.837 190.072 132.295 200.185 139.928 195.401C145.448 191.709 153.601 197.151 158.752 198.926C162.456 198.744 166.056 202.129 169.854 200.07C177.163 198.101 155.56 197.15 161.223 193.657C154.534 195.603 149.593 191.336 146.302 187.052C138.799 185.319 130.125 181.484 126.381 174.845C124.854 172.352 128.586 175.196 125.063 171.121C120.542 167.1 118.285 162.536 115.25 157.648C111.624 155.714 111.202 150.021 110.836 157.457C110.864 152.764 106.458 149.605 105.383 150.918C105.364 146.399 110.098 148.664 106.784 145.32C106.071 140.636 103.722 135.754 103.016 130.465C101.919 127.916 102.861 122.456 99.2719 128.227C97.9643 134.327 98.8379 120.732 100.871 125.215C103.541 120.64 99.9132 121.178 99.7646 121.813C101.503 117.954 100.865 112.479 99.311 114.567C100.237 110.476 100.775 99.5116 97.9243 101.455C99.6521 97.1768 101.201 81.88 93.7005 87.7122C90.6607 87.7549 85.3966 88.8156 82.9083 90.0531C90.7102 94.3538 82.1235 91.6063 78.9476 90.9227C78.5338 94.9021 75.3881 93.181 71.4582 93.22C77.7352 93.9966 68.4016 99.6398 64.8007 97.4478C60.1241 99.6829 68.8367 105.262 64.8945 106.987C65.379 109.588 57.73 106.048 58.3307 112.054C53.7907 110.144 57.7056 119.178 59.9769 116.123C67.6987 118.213 65.4129 122.977 65.6095 127.503C64.3514 130.141 59.3979 121.304 64.5063 121.714C60.4762 115.167 60.0483 119.347 56.6994 122.389C55.9203 122.609 65.2417 126.716 59.392 128.747C64.5385 129.541 64.6849 134.044 65.7326 136.894C68.8259 140.116 68.1928 133.337 71.8941 137.208C69.5519 133.759 59.4879 127.489 67.5908 129.5C67.5475 126.028 66.1253 123.229 68.6078 123.297C71.0662 118.845 66.0331 134.274 71.5744 128.616C73.1083 127.946 73.4883 124.158 76.2455 128.973C80.2501 132.913 77.692 135.768 72.0429 132.16C73.0536 135.589 79.5999 136.814 78.3697 142.176C79.6738 146.891 81.4985 145.155 83.0889 144.882C84.3365 149.464 85.045 146.095 85.1042 143.914C90.8167 145.137 89.4786 148.514 91.266 150.873C95.2024 152.65 85.6317 138.829 92.3898 146.717C99.5 153.137 95.0564 155.817 88.6756 154.788C92.7141 154.462 94.0165 160.248 99.0679 160.045C103.674 162.236 106.793 170.653 98.8531 167.149C96.0992 164.666 86.3536 161.603 94.3135 166.326C101.665 169.73 107.504 171.767 114.595 176.04C119.669 179.663 121.861 183.812 123.785 184.633C119.52 186.67 110.932 183.007 117.309 181.884C113.332 181.16 108.858 179.148 112.668 184.104C115.907 186.809 124.145 186.522 125.622 186.828C124.37 189.587 122.222 189.806 125.673 190.02C121.823 192.072 126.907 192.389 127.264 193.562H127.264ZM119.391 171.328C117.048 168.878 116.443 164.289 118.975 168.282C120.273 168.803 123.135 175.78 119.391 171.328H119.391ZM145.032 187.615C146.493 187.52 145.074 188.725 145.032 187.615V187.615ZM115.692 165.321C115.602 161.617 116.539 168.177 115.692 165.321V165.321ZM113.144 161.892C110.197 156.199 116.858 163.504 113.144 161.892V161.892ZM82.2613 140.577C83.9924 140.115 83.113 143.538 82.2613 140.577V140.577ZM106.84 153.899C107.903 149.907 108.089 157.249 106.84 153.899V153.899ZM89.4758 141.826C88.2518 139.623 92.0362 143.892 89.4758 141.826V141.826ZM104.378 146.603C101.586 140.348 106.354 143.186 104.995 147.628L104.378 146.603ZM78.6793 129.464C77.4313 127.413 75.3669 121.392 76.0315 119.554C76.6327 122.547 82.3966 132.435 78.8588 123.65C74.9493 116.286 83.5321 126.041 84.415 127.877C84.8261 129.705 82.0029 127.378 83.9158 131.663C80.4273 126.785 81.8564 134.357 78.6793 129.464V129.464ZM70.7371 123.992C71.064 119.221 72.5552 127.263 70.7371 123.992V123.992ZM74.3096 125.221C76.0143 121.621 77.2002 130.241 74.3096 125.221V125.221ZM65.7158 118.573C62.7589 115.635 60.6191 112.927 65.8542 116.75C67.8713 116.829 61.3725 110.59 66.34 114.769C71.5634 115.721 68.9193 123.333 65.7158 118.573ZM70.23 118.455C71.9472 116.754 71.1416 120.131 70.23 118.455V118.455ZM73.0076 119.346C70.4043 114.466 76.1672 121.392 73.0076 119.346V119.346ZM67.4859 114.069C58.8899 106.419 78.2873 118.069 68.8902 115.487L67.4858 114.069L67.4859 114.069V114.069ZM92.1147 128.379C88.3949 126.149 91.1289 112.677 92.3975 121.891C96.0137 120.721 92.1978 126.649 94.895 126.594C94.47 130.334 93.2633 131.679 92.1147 128.379ZM101.224 133.763C101.589 129.703 101.992 136.539 101.224 133.763V133.763ZM99.642 132.199C100.052 130.465 99.6844 134.242 99.642 132.199V132.199ZM69.1721 111.555C63.6498 103.936 85.2215 119.262 72.7091 113.488C71.4016 113.146 69.8285 113.024 69.1721 111.555ZM86.7142 120.856C86.1916 114.441 87.8813 121.919 86.714 120.856L86.7142 120.856ZM100.033 129.4C101.063 125.745 100.11 131.817 100.033 129.4V129.4ZM70.0181 108.647C73.3002 107.945 83.6198 114.412 74.1431 110.494C73.0902 109.329 70.8454 109.858 70.0181 108.647ZM98.2029 122.695C98.5537 116.135 100.162 118.776 98.215 123.634L98.203 122.695L98.2029 122.695H98.2029ZM72.4613 106.365C73.7986 104.403 68.9113 97.4957 73.1657 103.887C75.0041 105.348 78.4884 106.334 75.4121 106.949C80.2503 111.217 74.232 108.105 72.4613 106.365V106.365ZM96.8088 120.646C97.7327 113.173 97.6236 125.024 96.8088 120.646V120.646ZM69.6683 99.4626C70.6897 99.0261 70.2077 100.824 69.6683 99.4626V99.4626ZM76.0192 103.243C77.6536 99.813 79.0343 107.068 76.0192 103.243V103.243ZM93.9334 113.208C93.9161 111.891 94.2714 115.124 93.9334 113.208V113.208ZM92.8957 110.911C90.4093 104.777 95.2085 114.159 92.8957 110.911V110.911ZM91.369 106.889C90.9517 104.354 92.7875 110.073 91.369 106.889L91.369 106.889ZM93.8536 102.85C92.1474 99.8432 96.0083 89.5998 96.4391 95.9527C94.6382 100.903 95.9196 103.672 97.1759 97.0325C99.4959 91.8072 96.6747 107.344 93.8536 102.85L93.8536 102.85V102.85ZM96.407 87.6163C97.1507 86.703 96.572 88.7167 96.407 87.6163V87.6163ZM92.1429 171.638C91.1316 170.755 92.27 172.2 92.1429 171.638V171.638ZM100.927 176.082C105.813 177.335 105.788 175.321 101.372 174.723C98.9969 172.513 91.5019 170.17 98.2103 174.449C98.6546 175.574 100.058 175.548 100.927 176.082V176.082ZM83.5787 164.559C86.2706 166.566 93.7181 170.248 87.4135 165.323C89.5391 162.853 83.345 161.539 85.3997 159.887C80.1734 156.689 81.2769 156.973 84.9384 157.074C78.6574 154.266 85.8451 154.476 85.5066 153.038C83.0847 152.559 73.4769 148.767 79.1291 153.349C73.3833 150.42 77.7599 154.441 76.0232 154.016C70.1477 152.413 81.2557 158.49 75.0901 156.982C78.4608 159.653 84.163 163.824 76.5152 159.809C75.5075 161.259 81.988 163.458 83.5787 164.559ZM92.7659 169.837C103.937 173.436 87.2893 165.439 92.7659 169.837V169.837ZM139.795 198.327C139.939 196.111 138.269 200.218 139.795 198.327V198.327ZM144.629 200.362C147.206 197.864 144.734 204.34 148.9 199.75C148.945 196.465 148.771 194.524 144.113 198.515C142.829 199.227 142.256 202.255 144.629 200.362V200.362ZM67.8987 152.174C67.1072 149.062 62.3506 149.078 67.8987 152.174V152.174ZM73.0602 155.556C71.1435 152.378 66.2214 152.679 73.0602 155.556V155.556ZM102.424 173.265C105.291 175.811 115.592 175.133 105.907 173.578C104.472 171.457 96.798 171.968 102.424 173.265ZM142.791 198.194C147.203 194.492 138.515 199.846 142.791 198.194V198.194ZM151.967 204.5C151.995 203.312 150.066 205.021 151.967 204.5V204.5ZM151.982 202.837C156.868 197.66 147.247 203.143 151.982 202.837H151.982ZM55.2036 141.545C51.039 135.603 52.6148 132.932 48.5987 128.081C47.8384 124.371 41.7091 115.951 45.4285 124.871C48.8352 130.087 49.8476 138.164 55.2036 141.545V141.545ZM150.449 201.191C159.438 195.381 146.759 198.66 150.449 201.191V201.191ZM157.311 203.88C161.813 200.014 154.464 203.071 157.311 203.88V203.88ZM66.3687 145.606C67.6571 143.689 63.0414 145.36 66.3687 145.606V145.606ZM155.878 202.044C160.237 199.234 154.874 199.665 155.088 202.303L155.878 202.044H155.878ZM96.7253 164.76C96.5755 162.862 94.4236 164.921 96.7253 164.76V164.76ZM100.381 166.863C99.2191 164.514 98.5947 167.232 100.381 166.863V166.863ZM162.872 203.943C168.456 199.915 159.487 203.172 161.7 204.706L162.872 203.943ZM160.734 202.91C165.283 199.098 155.931 204.599 160.734 202.91V202.91ZM171.659 210.185C174.713 208.14 167.948 209.523 171.659 210.185V210.185ZM69.1698 144.223C73.2638 145.141 85.5304 154.306 78.2936 144.857C74.5872 143.76 76.8101 134.7 73.0295 136.304C75.567 140.543 75.1172 142.347 69.7896 139.675C63.0937 136.406 66.0267 141.294 67.3353 142.642C65.552 143.047 69.6942 144.189 69.1698 144.223V144.223ZM50.5177 129.493C51.2506 126.462 43.7691 112.816 46.9848 122.656C48.1456 124.717 48.0276 128.623 50.5177 129.493ZM84.7523 150.599C82.6442 148.836 84.6521 150.35 84.7523 150.599V150.599ZM89.9437 151.808C89.941 148.596 84.2054 150.504 89.9437 151.808V151.808ZM134.931 180.168C134.073 177.974 131.539 180.117 134.931 180.168L134.931 180.168ZM137.091 181.746C136.772 180.518 135.845 181.983 137.091 181.746V181.746ZM154.922 192.977C156.637 191.71 152.782 192.816 154.922 192.977V192.977ZM59.8346 131.872C64.7399 129.972 54.5789 130.517 59.8346 131.872V131.872ZM130.97 176.688C130.916 173.512 127.843 177.475 130.97 176.688V176.688ZM57.8965 127.355C61.0474 126.291 54.9816 126.654 57.8965 127.355V127.355ZM67.0422 131.786C66.9851 130.742 66.0748 132.181 67.0422 131.786V131.786ZM178.593 200.19C182.645 199.369 191.878 202.252 193.371 199.116C188.45 198.996 176.347 195.644 175.774 199.916L176.852 200.085L178.593 200.19V200.19ZM69.949 132.518C70.0194 129.3 67.4396 132.398 69.949 132.518V132.518ZM45.9025 115.838C44.8104 109.706 41.749 114.91 45.9025 115.838V115.838ZM51.6367 117.279C51.7071 115.31 46.3882 115.507 51.6367 117.279V117.279ZM54.9136 118.888C53.9664 118.121 54.1722 119.858 54.9136 118.888V118.888ZM75.5326 132.115C76.5033 131.224 73.2345 131.455 75.5326 132.115V132.115ZM52.731 115.259C52.1768 110.628 46.0896 114.565 52.731 115.259V115.259ZM40.975 107.631C40.8078 105.493 39.8294 108.437 40.975 107.631V107.631ZM42.7237 106.31C42.4384 103.776 41.2223 106.632 42.7237 106.31V106.31ZM52.3855 112.077C56.4711 110.472 44.9437 108.758 51.5507 111.774L52.3855 112.077ZM181.694 191.949C184.309 189.552 178.371 191.208 181.694 191.949V191.949ZM197.316 200.047C198.364 196.947 194.677 200.455 197.316 200.047V200.047ZM53.3729 107.013C53.8033 104.015 50.1339 107.608 53.3729 107.013V107.013ZM39.6265 97.8031C38.888 93.5698 38.989 86.1392 46.0524 88.6503C36.6239 90.5222 52.5779 100.369 50.5632 92.5946C54.5277 92.7887 58.3186 90.2516 56.2381 94.1018C64.0492 93.2391 69.4646 86.4658 77.0096 87.4149C82.8868 86.6372 89.3127 86.0473 95.6461 83.6816C100.853 83.3064 105.866 77.7 103.012 74.3769C95.9106 73.7761 88.4772 74.6646 80.6283 76.2247C71.9308 78.0327 64.0306 81.468 55.255 82.9425C46.7013 84.0916 56.9755 86.1084 54.5253 86.5577C50.0619 88.1064 59.8484 89.1507 53.9467 90.7834C50.3019 90.0904 46.5082 88.838 48.0651 84.9971C39.8714 86.0604 32.6715 89.461 39.145 97.7992L39.6265 97.8029L39.6265 97.8026V97.8031ZM59.3703 87.7476C61.2914 80.6703 69.6628 93.5714 62.5192 88.6876C61.6659 88.0491 60.2626 87.5281 59.3703 87.7476ZM59.7441 84.3163C62.5168 82.2507 61.218 85.4744 59.7441 84.3163V84.3163ZM63.2648 84.3722C63.5151 81.1156 71.3244 86.0963 64.5525 85.5446L63.2648 84.3722ZM68.0809 82.4358C69.8396 80.3808 68.5864 84.2637 68.0809 82.4358V82.4358ZM69.3129 81.6108C72.2414 78.0921 85.8973 79.3651 75.9017 81.2677C73.2225 79.2507 71.1688 82.457 69.3129 81.6108ZM87.1342 78.8637C86.6887 69.2521 95.988 82.2793 87.1342 78.8637V78.8637ZM92.1909 78.836C94.0397 73.9917 99.3652 76.8921 93.0464 77.8626C93.1836 78.3781 92.8611 80.3635 92.1909 78.836ZM51.3789 104.527C56.9028 101.144 45.5148 101.592 51.3789 104.527V104.527ZM55.4632 105.661C57.3999 103.602 51.255 104.826 55.4632 105.661V105.661ZM43.429 97.1207C46.5853 94.696 39.6939 96.1988 43.429 97.1207V97.1207ZM206.536 199.161C206.628 196.348 204.124 200.428 206.536 199.161V199.161ZM189.963 187.85C190.434 184.612 187.833 188.133 189.963 187.85V187.85ZM211.094 200.251C215.507 200.266 224.465 198.881 214.863 198.885C213.356 199.12 206.084 199.07 211.094 200.251L211.094 200.251V200.251ZM59.0559 103.676C62.6273 103.431 64.6436 99.7368 58.3651 99.9491C48.6345 98.9417 66.9503 103.281 57.1169 102.04C55.7955 102.915 58.9791 103.918 59.0559 103.676ZM62.2013 105.268C61.8284 102.975 61.0969 106.487 62.2013 105.268V105.268ZM65.9324 95.3192C67.4823 93.3969 63.7878 94.8053 65.9324 95.3192V95.3192ZM54.0548 75.4651C60.4288 73.2967 69.1451 70.8601 72.1547 76.5327C69.0918 72.8463 70.9186 69.2172 73.8115 74.6071C77.9022 80.0605 79.95 72.1267 77.2894 70.2976C80.3214 74.0648 83.7699 75.845 79.3194 70.5357C84.1556 64.7182 69.6358 71.2975 66.3356 71.2312C64.7477 71.9439 49.942 75.0071 54.0548 75.4651V75.4651ZM57.7903 68.3109C61.4254 65.5672 70.3626 69.9429 64.6277 65.5842C64.067 65.0889 52.0682 68.8895 57.7903 68.3109V68.3109ZM71.0429 68.858C75.2974 68.9666 69.2078 63.1426 74.2775 65.7816C73.4449 63.0616 68.375 62.5524 65.8963 61.4656C64.4944 63.9525 68.7499 68.8914 71.0429 68.858ZM60.1141 56.8279C61.5859 54.8327 57.5346 57.8395 60.1141 56.8279V56.8279ZM65.5306 58.1244C72.3867 57.215 63.783 55.1719 64.1491 58.0513L65.5306 58.1244V58.1244V58.1244ZM55.4168 50.2106C50.5894 43.9088 64.4954 51.2699 59.5908 44.6717C55.4627 41.3845 51.4959 48.3709 55.4168 50.2106ZM117.369 83.5798C119.583 79.6548 108.228 78.2891 115.877 82.1887C116.582 82.4241 116.422 83.8513 117.369 83.5798Z" fill="white"/>
</svg>

        </g>
         
        <g transform="translate(2400, 0)">
          <svg xmlns="http://www.w3.org/2000/svg" width="256" height="256" fill="none" viewBox="0 0 256 256"><rect width="256" height="256" fill="#F03C2E" rx="60"/><g clip-path="url(#clip0_7_283)"><path fill="#fff" d="M224.225 119.094L136.906 31.775C135.711 30.5787 134.291 29.6298 132.729 28.9824C131.166 28.3349 129.491 28.0017 127.8 28.0017C126.109 28.0017 124.434 28.3349 122.871 28.9824C121.309 29.6298 119.889 30.5787 118.694 31.775L100.569 49.9L123.569 72.9C128.919 71.025 135.044 72.3062 139.306 76.5687C141.335 78.6014 142.752 81.1638 143.394 83.9632C144.036 86.7626 143.878 89.6862 142.937 92.4L165.106 114.569C170.469 112.719 176.656 113.912 180.937 118.206C182.361 119.63 183.49 121.32 184.26 123.18C185.03 125.04 185.426 127.033 185.426 129.046C185.425 131.059 185.029 133.052 184.258 134.912C183.487 136.771 182.358 138.461 180.934 139.884C179.511 141.308 177.821 142.436 175.961 143.206C174.101 143.977 172.108 144.373 170.095 144.372C168.082 144.372 166.088 143.975 164.229 143.205C162.369 142.434 160.679 141.305 159.256 139.881C154.756 135.381 153.644 128.756 155.919 123.212L135.244 102.537V156.944C136.745 157.686 138.116 158.666 139.306 159.844C140.729 161.267 141.858 162.956 142.629 164.816C143.399 166.675 143.795 168.668 143.795 170.681C143.795 172.694 143.399 174.687 142.629 176.546C141.858 178.406 140.729 180.096 139.306 181.519C137.883 182.942 136.193 184.071 134.334 184.841C132.474 185.611 130.481 186.008 128.469 186.008C126.456 186.008 124.463 185.611 122.604 184.841C120.744 184.071 119.054 182.942 117.631 181.519C116.206 180.096 115.076 178.407 114.305 176.548C113.533 174.688 113.136 172.694 113.136 170.681C113.136 168.668 113.533 166.675 114.305 164.815C115.076 162.955 116.206 161.266 117.631 159.844C119.112 158.369 120.756 157.25 122.65 156.5V101.587C120.825 100.837 119.112 99.7312 117.631 98.2437C115.479 96.0943 114.016 93.3526 113.428 90.3684C112.841 87.3841 113.155 84.2924 114.331 81.4875L91.6437 58.8125L31.7687 118.625C30.5716 119.821 29.6219 121.241 28.9739 122.804C28.3259 124.367 27.9924 126.042 27.9924 127.734C27.9924 129.426 28.3259 131.102 28.9739 132.665C29.6219 134.228 30.5716 135.648 31.7687 136.844L119.094 224.156C120.289 225.352 121.709 226.301 123.271 226.949C124.834 227.596 126.509 227.929 128.2 227.929C129.891 227.929 131.566 227.596 133.129 226.949C134.691 226.301 136.111 225.352 137.306 224.156L224.225 137.375C225.422 136.179 226.372 134.759 227.02 133.196C227.668 131.633 228.001 129.958 228.001 128.266C228.001 126.574 227.668 124.898 227.02 123.335C226.372 121.772 225.422 120.352 224.225 119.156"/></g><defs><clipPath id="clip0_7_283"><rect width="200" height="200" fill="#fff" transform="translate(28 28)"/></clipPath></defs></svg>
        </g>
         
        <g transform="translate(2700, 0)">
          <svg width="256" height="256" viewBox="0 0 256 256" fill="none" xmlns="http://www.w3.org/2000/svg">
<rect width="256" height="256" rx="60" fill="#242938"/>
<path d="M128.001 30C72.7791 30 28 74.7708 28 130.001C28 174.184 56.6533 211.668 96.3867 224.891C101.384 225.817 103.219 222.722 103.219 220.081C103.219 217.696 103.126 209.819 103.083 201.463C75.2631 207.512 69.3927 189.664 69.3927 189.664C64.8437 178.105 58.2894 175.032 58.2894 175.032C49.2163 168.825 58.9733 168.953 58.9733 168.953C69.0151 169.658 74.3026 179.258 74.3026 179.258C83.2217 194.546 97.6965 190.126 103.403 187.571C104.301 181.107 106.892 176.696 109.752 174.199C87.5405 171.67 64.1913 163.095 64.1913 124.778C64.1913 113.86 68.0977 104.939 74.4947 97.9362C73.4564 95.4175 70.0335 85.2465 75.4635 71.4722C75.4635 71.4722 83.8609 68.7845 102.971 81.7226C110.948 79.5069 119.502 78.3958 128.001 78.3577C136.499 78.3958 145.061 79.5069 153.052 81.7226C172.139 68.7845 180.525 71.4722 180.525 71.4722C185.968 85.2465 182.544 95.4175 181.505 97.9362C187.917 104.939 191.797 113.86 191.797 124.778C191.797 163.187 168.403 171.644 146.135 174.119C149.722 177.223 152.918 183.308 152.918 192.638C152.918 206.018 152.802 216.787 152.802 220.081C152.802 222.742 154.602 225.86 159.671 224.878C199.383 211.64 228 174.169 228 130.001C228 74.7708 183.227 30 128.001 30ZM65.4536 172.453C65.2333 172.95 64.4517 173.099 63.7396 172.758C63.0143 172.432 62.6069 171.754 62.8421 171.256C63.0574 170.744 63.8406 170.602 64.5643 170.945C65.2913 171.271 65.7053 171.955 65.4536 172.453ZM70.3725 176.842C69.8956 177.285 68.9633 177.079 68.3307 176.38C67.6766 175.683 67.554 174.751 68.0376 174.302C68.5294 173.86 69.4336 174.067 70.0893 174.764C70.7434 175.47 70.8709 176.395 70.3725 176.842ZM73.7471 182.458C73.1344 182.884 72.1325 182.485 71.5132 181.595C70.9004 180.706 70.9004 179.64 71.5264 179.212C72.1474 178.785 73.1344 179.169 73.762 180.052C74.373 180.956 74.373 182.023 73.7471 182.458ZM79.4542 188.962C78.9061 189.566 77.7386 189.404 76.8841 188.579C76.0098 187.773 75.7663 186.629 76.3161 186.024C76.8709 185.418 78.045 185.589 78.9061 186.407C79.7738 187.211 80.0387 188.364 79.4542 188.962ZM86.8301 191.157C86.5883 191.941 85.4639 192.297 84.3312 191.964C83.2002 191.621 82.46 190.704 82.6885 189.912C82.9237 189.124 84.053 188.753 85.194 189.109C86.3234 189.45 87.0652 190.361 86.8301 191.157ZM95.2242 192.089C95.2523 192.913 94.2919 193.597 93.1029 193.612C91.9073 193.639 90.9402 192.971 90.9269 192.16C90.9269 191.327 91.8659 190.65 93.0615 190.63C94.2505 190.607 95.2242 191.269 95.2242 192.089ZM103.47 191.773C103.613 192.577 102.787 193.404 101.606 193.624C100.445 193.836 99.3702 193.339 99.2229 192.541C99.0788 191.716 99.92 190.89 101.079 190.676C102.262 190.471 103.32 190.955 103.47 191.773Z" fill="white"/>
</svg>

        </g>
         
        <g transform="translate(3000, 0)">
          <svg xmlns="http://www.w3.org/2000/svg" width="256" height="256" fill="none" viewBox="0 0 256 256"><rect width="256" height="256" fill="#242938" rx="60"/><path fill="url(#paint0_linear_97_938)" d="M220.724 116.455C220.37 113.258 220.014 109.35 218.593 105.087C217.527 100.824 215.751 96.206 213.265 91.2327C210.778 86.2593 207.581 81.2859 203.673 76.3125C202.252 74.5364 200.476 72.4049 198.345 70.6288C201.186 59.2611 194.793 49.6696 194.793 49.6696C184.135 48.9591 177.03 52.8667 174.543 54.9982C174.188 54.9982 173.833 54.643 173.122 54.2877C171.347 53.5773 169.57 52.8667 167.439 52.1563C165.308 51.4458 163.531 51.0906 161.4 50.3801C159.268 50.0248 157.136 49.6696 155.361 49.3143C155.005 49.3143 154.65 49.3143 154.295 49.3143C149.676 34.3943 136.177 28 136.177 28C121.258 37.5915 118.416 50.7354 118.416 50.7354C118.416 50.7354 118.416 51.0906 118.416 51.4458C117.705 51.801 116.639 51.801 115.929 52.1563C114.863 52.5115 113.797 52.8667 112.376 53.222C111.311 53.5773 110.245 53.9325 108.824 54.643C106.693 55.7087 104.206 56.7744 102.075 57.8401C99.9431 58.9058 97.8117 60.3268 95.6803 61.7478C95.325 61.7478 95.325 61.3925 95.325 61.3925C74.3659 53.5773 55.8934 63.1687 55.8934 63.1687C54.1172 85.1936 64.0639 99.4031 66.1954 101.89C65.8401 103.311 65.1297 104.732 64.7744 106.153C63.3535 111.126 61.9325 116.455 61.222 121.784C61.222 122.494 60.8667 123.204 60.8667 123.915C41.6838 133.506 36 153.044 36 153.044C51.9858 171.517 70.8135 172.582 70.8135 172.582C73.3002 176.846 75.7869 180.753 78.984 184.66C80.4049 186.081 81.8259 187.858 82.8917 189.279C77.2078 205.975 83.6021 219.83 83.6021 219.83C101.364 220.54 113.087 212.014 115.574 209.883C117.35 210.593 119.126 210.948 120.902 211.659C126.231 213.08 131.915 213.791 137.598 214.145C139.019 214.145 140.441 214.145 141.862 214.145H142.572H142.927H143.637H144.348C152.874 226.223 167.439 228 167.439 228C178.096 216.987 178.451 205.975 178.451 203.488C178.451 203.133 178.451 203.133 178.451 203.133V202.778C180.582 201.357 182.713 199.581 184.846 197.805C189.108 193.897 192.66 189.634 195.858 185.016C196.213 184.66 196.568 184.306 196.568 183.595C208.646 184.306 216.817 176.135 216.817 176.135C214.685 163.701 207.58 157.662 206.159 156.597C206.159 156.597 206.159 156.597 205.805 156.597C205.805 155.886 205.805 155.175 205.805 154.465C205.805 153.044 205.805 151.623 205.805 150.558V148.782V148.426V148.071C205.805 147.715 205.805 147.715 205.805 147.715V147.005V145.94C205.805 145.584 205.805 145.229 205.805 144.874C205.805 144.519 205.805 144.163 205.805 143.808V142.742V141.676C205.449 140.256 205.449 138.835 205.094 137.769C203.673 132.441 201.897 127.467 199.055 122.849C196.213 118.231 193.016 114.323 189.108 110.771C185.2 107.218 180.938 104.732 176.32 102.6C171.701 100.469 167.083 99.4031 162.11 98.6927C159.623 98.3374 157.492 98.3374 155.005 98.3374H154.295H153.94H153.584H153.229H152.519C152.163 98.3374 151.808 98.3374 151.453 98.3374C150.387 98.3374 148.966 98.6927 147.901 98.6927C143.283 99.4031 138.664 101.179 134.757 103.666C130.849 106.153 127.297 108.995 124.455 112.192C121.613 115.389 119.481 119.297 118.06 123.204C116.639 127.112 115.929 131.019 115.574 134.927C115.574 135.993 115.574 136.703 115.574 137.769C115.574 138.124 115.574 138.124 115.574 138.48V139.19C115.574 139.545 115.574 140.256 115.574 140.611C115.929 142.387 116.284 144.519 116.639 146.295C117.705 149.847 119.481 153.044 121.258 155.886C123.389 158.728 125.876 160.86 128.363 162.635C130.849 164.412 133.691 165.833 136.533 166.543C139.375 167.254 141.862 167.609 144.703 167.609C145.058 167.609 145.414 167.609 145.769 167.609H146.124H146.48C146.835 167.609 147.19 167.609 147.19 167.609C147.19 167.609 147.19 167.609 147.545 167.609H147.901H148.256C148.611 167.609 148.966 167.609 149.322 167.609C149.676 167.609 150.032 167.609 150.387 167.254C151.097 167.254 151.453 166.899 152.163 166.899C153.229 166.543 154.295 166.188 155.361 165.478C156.426 165.122 157.136 164.412 158.202 163.701C158.557 163.701 158.558 163.347 158.913 162.991C159.979 162.281 159.979 160.86 159.268 160.149C158.558 159.439 157.492 159.083 156.782 159.794C156.426 159.794 156.426 160.149 156.071 160.149C155.361 160.504 154.65 160.86 153.584 161.214C152.874 161.57 151.808 161.57 151.097 161.925C150.742 161.925 150.032 161.925 149.676 161.925C149.322 161.925 149.322 161.925 148.966 161.925C148.611 161.925 148.611 161.925 148.256 161.925C147.901 161.925 147.901 161.925 147.545 161.925C147.19 161.925 146.835 161.925 146.835 161.925H146.48H146.124C145.769 161.925 145.769 161.925 145.414 161.925C143.283 161.57 141.506 161.214 139.375 160.149C137.243 159.439 135.467 158.018 133.69 156.597C131.915 155.175 130.494 153.044 129.428 151.268C128.363 149.492 127.297 147.005 126.941 144.519C126.586 143.453 126.586 142.032 126.586 140.966C126.586 140.611 126.586 140.256 126.586 139.901V139.545V139.19C126.586 138.48 126.586 137.769 126.941 137.058C128.007 131.73 130.494 126.757 134.757 122.494C135.823 121.428 136.888 120.717 137.954 119.651C139.019 118.941 140.441 118.231 141.506 117.52C142.927 116.81 144.348 116.455 145.414 116.099C146.835 115.744 148.256 115.389 149.676 115.389C150.387 115.389 151.097 115.389 151.808 115.389C152.163 115.389 152.163 115.389 152.163 115.389H152.874H153.229H153.94C155.361 115.389 157.136 115.744 158.557 116.099C161.755 116.81 164.596 117.876 167.439 119.651C173.122 122.849 177.74 127.823 180.938 133.506C182.359 136.348 183.425 139.545 184.135 142.742C184.135 143.453 184.49 144.519 184.49 145.229V145.94V146.65C184.49 147.005 184.49 147.005 184.49 147.361C184.49 147.715 184.49 147.715 184.49 148.071V148.782V149.492C184.49 149.847 184.49 150.557 184.49 150.913C184.49 151.979 184.49 152.689 184.135 153.755C184.135 154.465 183.78 155.531 183.78 156.241C183.78 156.952 183.424 158.018 183.069 158.728C182.713 160.504 182.003 162.281 181.293 163.701C179.872 166.899 178.096 170.096 175.964 173.293C171.701 178.977 166.018 183.95 159.268 186.792C156.071 188.213 152.519 189.279 148.966 189.989C147.19 190.345 145.414 190.345 143.637 190.699H143.283H142.927H142.216H141.506H141.151C141.506 190.699 141.151 190.699 141.151 190.699C140.085 190.699 139.375 190.699 138.309 190.699C134.402 190.345 130.494 189.634 126.941 188.568C123.389 187.503 119.481 186.081 116.284 184.306C109.535 180.753 103.495 175.78 98.5221 169.74C96.0355 166.899 93.904 163.701 92.4831 160.149C90.7068 156.597 89.286 153.044 88.2202 149.492C87.1545 145.94 86.4441 142.032 86.4441 138.48V137.769V137.414V136.703V134.572V134.216V133.506V133.151C86.4441 132.796 86.4441 132.085 86.4441 131.73C86.4441 129.954 86.7993 127.823 86.7993 126.046C87.1545 124.27 87.5097 122.138 87.865 120.363C88.2202 118.586 88.5755 116.455 89.2859 114.678C90.3516 111.126 91.7726 107.574 93.1936 104.021C96.3907 97.2717 100.298 91.2327 105.272 86.6145C106.337 85.5488 107.758 84.1279 109.179 83.0621C110.6 81.9964 112.021 80.9307 113.442 80.2202C114.863 79.1545 116.284 78.444 117.705 77.7336C118.416 77.3783 119.126 77.023 119.837 76.6678C120.192 76.6678 120.547 76.3125 120.902 76.3125C121.257 76.3125 121.613 75.9573 121.968 75.9573C123.389 75.2469 125.165 74.8916 126.586 74.1812C126.941 74.1812 127.297 73.8259 127.652 73.8259C128.007 73.8259 128.363 73.4706 128.717 73.4706C129.428 73.1154 130.494 73.1154 131.204 72.7602C131.559 72.7602 131.915 72.4049 132.625 72.4049C132.98 72.4049 133.336 72.4049 134.046 72.0497C134.402 72.0497 134.757 72.0497 135.467 71.6945H136.177H136.888C137.243 71.6945 137.598 71.6945 138.309 71.3392C138.664 71.3392 139.375 71.3392 139.73 70.984C140.085 70.984 140.796 70.984 141.151 70.984C141.506 70.984 141.862 70.984 142.216 70.984H142.927H143.283H143.637C143.993 70.984 144.703 70.984 145.058 70.984H145.769C145.769 70.984 146.124 70.984 145.769 70.984H146.124C146.48 70.984 146.835 70.984 147.19 70.984C148.966 70.984 150.387 70.984 152.163 70.984C155.361 70.984 158.557 71.3392 161.755 72.0497C167.794 73.1154 173.478 75.2469 178.807 77.7336C184.135 80.2202 188.753 83.4173 192.66 86.9697C193.016 87.325 193.016 87.325 193.371 87.6803C193.726 88.0355 193.726 88.0355 194.081 88.3907C194.437 88.746 195.147 89.1012 195.502 89.8116C195.858 90.5221 196.568 90.5221 196.924 91.2327C197.279 91.9431 197.989 92.2984 198.345 92.6536C200.12 94.4298 201.541 96.206 202.963 98.3374C205.805 101.89 208.292 105.797 210.067 109.35C210.067 109.705 210.423 109.705 210.423 110.06C210.423 110.416 210.778 110.416 210.778 110.771C211.133 111.126 211.133 111.481 211.488 112.192C211.844 112.547 211.844 112.902 212.198 113.613C212.554 113.968 212.554 114.323 212.909 115.034C213.62 116.81 214.331 118.231 214.685 119.651C215.396 122.138 216.106 124.27 216.462 126.046C216.817 126.757 217.527 127.467 218.238 127.112C218.948 127.112 219.659 126.402 219.659 125.69C221.08 121.428 221.08 118.941 220.724 116.455Z"/><defs><linearGradient id="paint0_linear_97_938" x1="129.039" x2="129.039" y1="282.048" y2="50.683" gradientUnits="userSpaceOnUse"><stop stop-color="#FFF100"/><stop offset="1" stop-color="#F05A28"/></linearGradient></defs></svg>
        </g>
         
        <g transform="translate(3300, 0)">
          <svg xmlns="http://www.w3.org/2000/svg" width="256" height="256" fill="none" viewBox="0 0 256 256"><rect width="256" height="256" fill="#242938" rx="60"/><path fill="#E535AB" d="M47.8621 176.192L55.2041 180.431L136.997 38.7664L129.655 34.5274L47.8621 176.192Z"/><path fill="#E535AB" d="M209.766 164.875H46.1809V173.353H209.766V164.875Z"/><path fill="#E535AB" d="M49.4177 169.637L131.241 216.879L135.48 209.537L53.6567 162.295L49.4177 169.637Z"/><path fill="#E535AB" d="M120.498 46.5121L202.321 93.7542L206.56 86.4122L124.737 39.1701L120.498 46.5121Z"/><path fill="#E535AB" d="M49.4404 86.3797L53.6794 93.7217L135.503 46.4796L131.264 39.1376L49.4404 86.3797Z"/><path fill="#E535AB" d="M119.02 38.7675L200.812 180.432L208.154 176.193L126.362 34.5285L119.02 38.7675Z"/><path fill="#E535AB" d="M61.145 80.7577H52.667V175.242H61.145V80.7577Z"/><path fill="#E535AB" d="M203.331 80.7577H194.853V175.242H203.331V80.7577Z"/><path fill="#E535AB" d="M126.095 206.877L129.798 213.291L200.962 172.203L197.259 165.79L126.095 206.877Z"/><path fill="#E535AB" d="M214.567 178C209.664 186.529 198.734 189.44 190.205 184.537C181.676 179.634 178.765 168.705 183.668 160.176C188.571 151.646 199.501 148.735 208.03 153.638C216.61 158.592 219.521 169.471 214.567 178Z"/><path fill="#E535AB" d="M72.2789 95.8244C67.3759 104.353 56.4464 107.265 47.9173 102.362C39.3882 97.4587 36.4771 86.5292 41.38 78.0001C46.283 69.4709 57.2125 66.5598 65.7416 71.4628C74.2707 76.4168 77.1819 87.2953 72.2789 95.8244Z"/><path fill="#E535AB" d="M41.431 178C36.5281 169.471 39.4392 158.592 47.9683 153.638C56.4974 148.735 67.3759 151.646 72.3299 160.176C77.2329 168.705 74.3217 179.583 65.7926 184.537C57.2124 189.44 46.334 186.529 41.431 178Z"/><path fill="#E535AB" d="M183.719 95.8244C178.816 87.2953 181.727 76.4168 190.256 71.4628C198.786 66.5598 209.664 69.4709 214.618 78.0001C219.521 86.5292 216.61 97.4076 208.081 102.362C199.552 107.265 188.622 104.353 183.719 95.8244Z"/><path fill="#E535AB" d="M127.999 228C118.142 228 110.175 220.033 110.175 210.176C110.175 200.319 118.142 192.351 127.999 192.351C137.856 192.351 145.823 200.319 145.823 210.176C145.823 219.982 137.856 228 127.999 228Z"/><path fill="#E535AB" d="M127.999 63.6486C118.142 63.6486 110.175 55.6813 110.175 45.8243C110.175 35.9673 118.142 28 127.999 28C137.856 28 145.823 35.9673 145.823 45.8243C145.823 55.6813 137.856 63.6486 127.999 63.6486Z"/></svg>
        </g>
         
        <g transform="translate(3600, 0)">
          <svg xmlns="http://www.w3.org/2000/svg" width="256" height="256" fill="none" viewBox="0 0 256 256"><rect width="256" height="256" fill="#E14E1D" rx="60"/><path fill="#fff" d="M48 38L56.6098 134.593H167.32L163.605 176.023L127.959 185.661L92.38 176.037L90.0012 149.435H57.9389L62.5236 200.716L127.951 218.888L193.461 200.716L202.244 102.655H85.8241L82.901 69.9448H205.041H205.139L208 38H48Z"/><path fill="#EBEBEB" d="M128 38H48L56.6098 134.593H128V102.655H85.8241L82.901 69.9448H128V38Z"/><path fill="#EBEBEB" d="M128 185.647L127.959 185.661L92.38 176.037L90.0012 149.435H57.9388L62.5236 200.716L127.951 218.888L128 218.874V185.647Z"/></svg>
        </g>
         
        <g transform="translate(3900, 0)">
          <svg width="256" height="256" viewBox="0 0 256 256" fill="none" xmlns="http://www.w3.org/2000/svg">
<rect width="256" height="256" rx="60" fill="#F0DB4F"/>
<path d="M67.3117 213.932L86.9027 202.076C90.6821 208.777 94.1202 214.447 102.367 214.447C110.272 214.447 115.256 211.355 115.256 199.327V117.529H139.314V199.667C139.314 224.584 124.708 235.926 103.398 235.926C84.1533 235.926 72.9819 225.959 67.3113 213.93" fill="#323330"/>
<path d="M152.381 211.354L171.969 200.013C177.126 208.434 183.828 214.62 195.684 214.62C205.653 214.62 212.009 209.636 212.009 202.762C212.009 194.514 205.479 191.592 194.481 186.782L188.468 184.203C171.111 176.815 159.597 167.535 159.597 147.945C159.597 129.901 173.345 116.153 194.826 116.153C210.12 116.153 221.118 121.481 229.022 135.4L210.291 147.429C206.166 140.04 201.7 137.119 194.826 137.119C187.78 137.119 183.312 141.587 183.312 147.429C183.312 154.646 187.78 157.568 198.09 162.037L204.104 164.614C224.553 173.379 236.067 182.313 236.067 202.418C236.067 224.072 219.055 235.928 196.2 235.928C173.861 235.928 159.426 225.274 152.381 211.354" fill="#323330"/>
</svg>

        </g>
         
        <g transform="translate(4200, 0)">
          <svg xmlns="http://www.w3.org/2000/svg" width="256" height="256" fill="none" viewBox="0 0 256 256"><rect width="256" height="256" fill="#242938" rx="60"/><g clip-path="url(#clip0_137_129)"><path fill="#D33833" fill-rule="evenodd" d="M198.402 124.423C198.402 164.029 167.012 196.137 128.29 196.137C89.5687 196.137 58.1785 164.029 58.1785 124.423C58.1785 84.8157 89.5687 52.7075 128.29 52.7075C167.012 52.7075 198.402 84.8157 198.402 124.423Z" clip-rule="evenodd"/><path fill="#EF3D3A" d="M61.0356 142.184C61.0356 142.184 55.96 67.3982 124.871 65.2612L120.063 57.2484L82.6703 69.8021L71.9863 82.0881L62.6382 99.9839L57.2959 120.817L58.8985 134.706"/><path fill="#231F20" d="M80.2695 75.5008C67.9682 88.0873 60.356 105.466 60.356 124.691C60.356 143.912 67.9682 161.292 80.2695 173.877C92.5767 186.461 109.538 194.226 128.289 194.226C147.041 194.226 164.003 186.461 176.309 173.877C188.61 161.292 196.224 143.912 196.224 124.691C196.224 105.466 188.61 88.0873 176.309 75.5008C164.003 62.9191 147.041 55.1538 128.289 55.1522C109.538 55.1538 92.5767 62.9191 80.2695 75.5008ZM77.1557 176.921C64.0823 163.551 56 145.073 56 124.691C56 104.305 64.0823 85.8293 77.1557 72.4583C90.226 59.0849 108.319 50.7957 128.289 50.7981C148.26 50.7957 166.354 59.0849 179.422 72.4583C192.497 85.8293 200.58 104.307 200.579 124.691C200.58 145.073 192.497 163.551 179.422 176.921C166.354 190.293 148.26 198.582 128.289 198.582C108.319 198.582 90.226 190.293 77.1557 176.921"/><path fill="#F0D6B7" fill-rule="evenodd" d="M157.804 124.821L147.119 126.423L132.696 128.026L123.347 128.292L114.267 128.026L107.322 125.889L101.178 119.212L96.3707 105.59L95.3024 102.651L88.8922 100.515L85.1528 94.3718L82.4819 85.5577L85.4204 77.8117L92.3643 75.4079L97.9733 78.0793L100.645 83.9551L103.85 83.4207L104.918 82.0858L103.85 75.9423L103.582 68.1963L105.185 57.5128L105.122 51.4103L109.993 43.6242L118.54 37.4808L133.497 31.0705L150.057 33.4744L164.48 43.891L171.158 54.5745L175.431 62.3205L176.499 81.5513L173.294 98.1114L167.418 112.801L161.809 120.547" clip-rule="evenodd"/><path fill="#335061" fill-rule="evenodd" d="M148.722 171.027L110.527 172.63V179.04L113.732 201.476L112.13 203.346L85.4206 194.264L83.5504 191.059L80.8796 160.878L74.7373 142.716L73.4014 138.442L94.7684 123.752L101.446 121.081L107.322 128.292L112.397 132.833L118.273 134.703L120.944 135.504L124.149 149.393L126.553 152.331L132.696 150.194L128.422 158.474L151.66 169.425L148.722 171.027" clip-rule="evenodd"/><path fill="#6D6B6D" fill-rule="evenodd" d="M85.4205 77.8117L92.3644 75.4078L97.9734 78.0793L100.645 83.9551L103.85 83.4206L104.651 80.2155L103.049 74.0729L104.651 59.3822L103.315 51.3693L108.123 45.7604L118.54 37.4807L115.602 33.4743L100.911 40.6858L94.7682 45.4935L91.2961 52.9719L85.9541 60.1834L84.3516 68.7307L85.4205 77.8117Z" clip-rule="evenodd"/><path fill="#DCD9D8" fill-rule="evenodd" d="M96.3709 52.7051C96.3709 52.7051 100.377 42.8229 116.403 38.0152C132.429 33.2075 117.204 34.5424 117.204 34.5424L99.8437 41.2203L93.1658 47.8974L90.2283 53.2396L96.3709 52.7051Z" clip-rule="evenodd"/><path fill="#DCD9D8" fill-rule="evenodd" d="M88.358 75.9422C88.358 75.9422 82.749 57.2451 104.117 54.5745L103.315 51.3693L88.6256 54.8421L84.3516 68.7307L85.4205 77.8116L88.358 75.9422Z" clip-rule="evenodd"/><path fill="#F7E4CD" fill-rule="evenodd" d="M96.905 100.782L100.402 97.3934C100.402 97.3934 101.981 97.5769 102.247 99.4463C102.514 101.317 103.315 118.143 114.8 127.225C115.848 128.054 106.254 125.889 106.254 125.889L97.7063 112.534" clip-rule="evenodd"/><path fill="#F7E4CD" fill-rule="evenodd" d="M146.052 95.7075C146.052 95.7075 146.675 87.6114 148.855 88.234C151.035 88.8566 151.035 91.0368 151.035 91.0368C151.035 91.0368 145.74 94.4623 146.052 95.7075" clip-rule="evenodd"/><path fill="#F7E4CD" d="M168.22 66.0601C168.22 66.0601 163.817 66.9895 163.412 70.8678C163.006 74.7468 168.22 71.669 169.021 71.4022"/><path fill="#F7E4CD" d="M135.901 66.3277C135.901 66.3277 130.025 67.129 130.025 70.8678C130.025 74.6073 136.703 74.3405 138.572 72.738"/><path fill="#F7E4CD" fill-rule="evenodd" d="M99.5759 83.6883C99.5759 83.6883 89.4259 77.5448 88.358 83.4215C87.2897 89.2973 84.8852 93.5713 89.9605 99.7139L86.4884 98.6458L83.2833 90.3662L82.2153 82.3533L88.358 75.9423L95.3025 76.4767L99.3089 79.6819L99.5759 83.6883Z" clip-rule="evenodd"/><path fill="#F7E4CD" fill-rule="evenodd" d="M104.384 66.8614C104.384 66.8614 108.924 43.3574 131.895 38.8165C150.806 35.0785 160.74 39.6178 164.48 43.891C164.48 43.891 147.653 23.8598 131.627 30.0024C115.602 36.1458 103.85 47.3638 104.117 54.5745C104.572 66.8566 104.384 66.8614 104.384 66.8614Z" clip-rule="evenodd"/><path fill="#F7E4CD" fill-rule="evenodd" d="M166.35 46.5617C166.35 46.5617 158.605 46.2949 158.337 53.2396C158.337 53.2396 158.337 54.3077 158.871 55.3758C158.871 55.3758 165.015 48.4311 168.754 52.1707" clip-rule="evenodd"/><path fill="#F7E4CD" fill-rule="evenodd" d="M132.433 56.0994C132.433 56.0994 131.1 45.4399 122.012 51.637C116.136 55.6434 116.671 61.2524 117.738 62.3205C118.807 63.3894 118.516 65.5409 119.33 64.0641C120.142 62.5873 119.875 57.7796 122.813 56.4447C125.751 55.109 130.568 53.617 132.433 56.0994Z" clip-rule="evenodd"/><path fill="#49728B" fill-rule="evenodd" d="M107.322 128.292L82.2155 139.51C82.2155 139.51 92.6321 180.91 87.2898 193.731L83.5504 192.396L83.2834 176.637L76.3398 146.723L73.4014 138.442L99.576 120.815L107.322 128.292Z" clip-rule="evenodd"/><path fill="#49728B" fill-rule="evenodd" d="M109.903 151.191L113.465 155.537V171.562H109.191C109.191 171.562 108.658 160.345 108.658 159.009C108.658 157.673 109.191 152.865 109.191 152.865" clip-rule="evenodd"/><path fill="#49728B" fill-rule="evenodd" d="M109.993 173.966L97.9734 174.5L101.446 176.904L109.993 178.239" clip-rule="evenodd"/><path fill="#335061" fill-rule="evenodd" d="M151.126 171.295L161.008 171.028L163.412 195.601L153.262 196.936L151.126 171.295" clip-rule="evenodd"/><path fill="#335061" fill-rule="evenodd" d="M153.796 171.295L168.754 170.494C168.754 170.494 174.897 155.002 174.897 154.201C174.897 153.4 180.239 131.765 180.239 131.765L168.219 119.212L165.816 117.075L159.405 123.486V148.325L153.796 171.295" clip-rule="evenodd"/><path fill="#49728B" fill-rule="evenodd" d="M160.473 169.425L151.126 171.295L152.461 178.774C155.933 180.377 161.809 176.103 161.809 176.103" clip-rule="evenodd"/><path fill="#49728B" fill-rule="evenodd" d="M160.741 122.684L179.438 136.573L179.972 130.163L165.816 117.075L160.741 122.684Z" clip-rule="evenodd"/><path fill="#fff" fill-rule="evenodd" d="M119.262 223.915L113.732 201.476L110.982 184.919L110.527 172.63L135.555 171.297L151.126 171.295L149.71 199.342L152.114 220.977L151.847 224.983L131.548 226.586L119.262 223.915" clip-rule="evenodd"/><path fill="#DCD9D8" fill-rule="evenodd" d="M147.653 171.028C147.653 171.028 146.318 198.806 150.325 218.57C150.325 218.57 142.312 223.646 130.559 224.981L152.995 224.179L155.666 222.577L152.461 178.774L151.66 169.425" clip-rule="evenodd"/><path fill="#fff" fill-rule="evenodd" d="M163.867 193.466L174.284 190.528L194.048 189.46L196.986 180.379L191.644 164.62L185.502 163.819L176.954 166.49L168.754 170.494L164.401 169.695L161.008 171.028" clip-rule="evenodd"/><path fill="#DCD9D8" fill-rule="evenodd" d="M163.679 188.122C163.679 188.122 170.623 184.917 171.692 185.184L168.754 170.494L172.226 169.159C172.226 169.159 174.63 183.047 174.63 184.65C174.63 184.65 189.587 185.451 190.922 185.451C190.922 185.451 194.127 179.308 193.326 172.897L196.264 181.445L196.531 186.252L192.258 192.663L187.45 193.731L179.438 193.464L176.767 189.992L167.418 191.327L164.48 192.396" clip-rule="evenodd"/><path fill="#fff" d="M153.183 169.161L147.307 154.204L141.164 145.389C141.164 145.389 142.499 141.65 144.369 141.65C146.239 141.65 150.512 141.65 150.512 141.65L156.388 143.787L155.854 153.669L153.183 169.161Z"/><path fill="#DCD9D8" fill-rule="evenodd" d="M154.331 164.083C154.331 164.083 146.852 149.661 146.852 147.524C146.852 147.524 148.187 144.319 150.057 145.12C151.927 145.921 155.934 148.058 155.934 148.058V142.983L146.852 141.113L140.709 141.914L151.126 166.487L153.262 166.755" clip-rule="evenodd"/><path fill="#fff" d="M121.666 128.83L114.267 128.026L107.322 125.889V128.292L110.715 132.034L121.399 136.842"/><path fill="#DCD9D8" fill-rule="evenodd" d="M109.727 129.631C109.727 129.631 118.007 133.103 120.678 132.302L120.944 135.504L113.466 133.905L108.925 130.7L109.727 129.631Z" clip-rule="evenodd"/><path fill="#D33833" fill-rule="evenodd" d="M163.838 142.559C159.306 142.426 155.211 141.888 151.627 140.877C151.87 139.407 151.414 137.965 151.78 136.906C152.78 136.187 154.454 136.198 155.965 136.029C154.659 135.387 152.824 135.133 151.316 135.504C151.281 134.484 150.824 133.852 150.546 133.054C153.094 132.144 159.11 126.182 162.493 128.156C164.106 129.095 164.791 134.459 164.916 137.067C165.02 139.231 164.719 141.413 163.838 142.559Z" clip-rule="evenodd"/><path stroke="#D33833" stroke-width="2.5" d="M163.838 142.559C159.306 142.426 155.211 141.888 151.627 140.877C151.87 139.407 151.414 137.965 151.78 136.906C152.78 136.187 154.454 136.198 155.965 136.029C154.659 135.387 152.824 135.133 151.316 135.504C151.281 134.484 150.824 133.852 150.546 133.054C153.094 132.144 159.11 126.182 162.493 128.156C164.106 129.095 164.791 134.459 164.916 137.067C165.02 139.231 164.719 141.413 163.838 142.559Z"/><path fill="#D33833" fill-rule="evenodd" d="M142.166 135.151C142.154 135.494 142.139 135.839 142.126 136.185C140.711 137.115 138.426 137.103 136.873 137.885C139.163 137.985 140.965 138.536 142.524 139.313C142.49 140.177 142.457 141.04 142.423 141.904C139.829 143.679 137.46 146.324 134.406 147.989C132.962 148.776 127.895 150.803 126.359 150.445C125.489 150.243 125.411 149.164 125.064 148.148C124.323 145.97 122.619 142.505 122.47 139.228C122.281 135.088 121.863 128.151 126.324 129.003C129.923 129.69 134.109 131.348 136.895 132.87C138.598 133.801 139.583 134.952 142.166 135.151" clip-rule="evenodd"/><path stroke="#D33833" stroke-width="2.5" d="M142.166 135.151C142.154 135.494 142.139 135.839 142.126 136.185C140.711 137.115 138.426 137.103 136.873 137.885C139.163 137.985 140.965 138.536 142.524 139.313C142.49 140.177 142.457 141.04 142.423 141.904C139.829 143.679 137.46 146.324 134.406 147.989C132.962 148.776 127.895 150.803 126.359 150.445C125.489 150.243 125.411 149.164 125.064 148.148C124.323 145.97 122.619 142.505 122.47 139.228C122.281 135.088 121.863 128.151 126.324 129.003C129.923 129.69 134.109 131.348 136.895 132.87C138.598 133.801 139.583 134.952 142.166 135.151V135.151Z"/><path fill="#D33833" fill-rule="evenodd" d="M144.742 140.09C144.346 137.835 143.889 137.192 144.066 135.224C150.079 131.215 151.208 142.111 144.742 140.09Z" clip-rule="evenodd"/><path stroke="#D33833" stroke-width="2.5" d="M144.742 140.09C144.346 137.835 143.889 137.192 144.066 135.224C150.079 131.215 151.208 142.111 144.742 140.09Z"/><path fill="#EF3D3A" fill-rule="evenodd" d="M153.45 141.917C153.45 141.917 151.579 139.246 152.915 138.445C154.251 137.643 155.587 138.446 156.388 137.11C157.189 135.774 156.388 134.973 156.655 133.37C156.921 131.768 158.258 131.5 159.593 131.233C160.928 130.966 164.668 130.432 165.202 131.768L163.599 126.96L160.394 125.892L150.244 131.768L149.71 134.706V140.582" clip-rule="evenodd"/><path fill="#EF3D3A" fill-rule="evenodd" d="M125.405 150.732C125.084 146.563 124.745 142.401 124.367 138.236C123.801 132.018 125.86 133.103 131.25 133.103C132.073 133.103 136.319 134.085 136.623 134.706C138.079 137.681 134.187 137.02 138.301 139.264C141.773 141.157 147.908 138.114 146.505 133.905C145.72 132.969 142.414 133.613 141.228 132.998C139.142 131.917 137.055 130.835 134.969 129.753C132.314 128.376 126.178 126.368 123.348 128.292C116.176 133.17 123.8 145.357 126.359 150.445" clip-rule="evenodd"/><path fill="#231F20" fill-rule="evenodd" d="M132.433 56.0993C125.153 54.4038 121.536 59.1458 119.329 64.0641C117.359 63.5865 118.143 60.907 118.641 59.5417C119.944 55.9583 125.195 51.1883 129.486 51.8349C131.332 52.113 133.831 53.8013 132.433 56.0993" clip-rule="evenodd"/><path fill="#231F20" fill-rule="evenodd" d="M167.903 64.3894C168.018 64.3942 168.134 64.3982 168.248 64.403C169.894 67.8205 171.317 71.4407 173.393 74.4575C172.002 77.6955 162.865 80.5609 163.006 74.7468C164.982 73.883 168.394 74.5705 170.145 73.4672C169.132 70.6875 167.671 68.3213 167.903 64.3894" clip-rule="evenodd"/><path fill="#231F20" fill-rule="evenodd" d="M136.16 64.4783C137.721 67.3397 138.229 70.3461 140.448 72.5088C141.447 73.4823 143.39 74.669 142.427 77.3766C142.202 78.0152 140.557 79.4391 139.607 79.7187C136.139 80.7428 128.056 79.9302 130.793 75.6057C133.662 75.7395 137.518 77.4687 139.662 75.3862C138.015 72.754 135.08 67.5464 136.16 64.4783" clip-rule="evenodd"/><path fill="#231F20" fill-rule="evenodd" d="M166.601 93.5601C161.378 96.915 155.555 100.563 146.997 99.7171C145.168 98.1274 144.471 94.5897 146.248 92.2532C147.172 93.8429 146.591 96.7668 149.168 97.2067C154.024 98.0377 159.676 94.2364 163.168 92.9078C165.334 89.2564 162.982 87.9134 161.031 85.5633C157.036 80.7484 151.678 74.7804 151.873 67.5721C153.487 66.4014 153.627 69.359 153.858 69.8974C155.944 74.7788 161.193 81.0216 165.024 85.1995C165.965 86.2284 167.514 87.2155 167.686 87.8958C168.183 89.8742 166.393 92.2444 166.601 93.5601" clip-rule="evenodd"/><path fill="#231F20" fill-rule="evenodd" d="M97.7481 90.028C96.1111 89.0937 95.7214 84.9784 93.7995 84.8614C91.053 84.6947 91.5538 90.2003 91.5648 93.4199C89.6742 91.7035 89.3418 86.4191 90.7306 83.7051C89.1478 82.9279 88.441 84.5625 87.563 85.1386C88.6914 76.9415 99.5541 81.3365 97.7481 90.028Z" clip-rule="evenodd"/><path fill="#231F20" fill-rule="evenodd" d="M169.926 96.9735C167.495 101.601 164.056 106.697 156.922 106.845C156.777 105.351 156.666 103.077 156.93 102.177C162.384 101.653 165.751 98.8774 169.926 96.9735Z" clip-rule="evenodd"/><path fill="#231F20" fill-rule="evenodd" d="M135.749 99.9736C140.299 102.366 148.661 102.623 154.845 102.442C155.177 103.797 155.169 105.471 155.182 107.123C147.232 107.52 137.833 105.553 135.749 99.9736Z" clip-rule="evenodd"/><path fill="#231F20" fill-rule="evenodd" d="M134.884 104.435C138.031 112.335 148.845 111.425 157.964 111.208C157.563 112.233 156.692 113.445 155.611 113.883C152.688 115.072 144.628 115.974 140.571 113.82C137.999 112.452 136.345 109.361 134.936 107.55C134.255 106.675 130.865 104.44 134.884 104.435" clip-rule="evenodd"/><path fill="#81B0C4" fill-rule="evenodd" d="M166.221 148.011C162.529 154.335 158.996 160.83 154.615 166.408C156.452 161.008 157.238 151.97 157.515 145.08C161.357 143.282 164.648 145.485 166.221 148.011Z" clip-rule="evenodd"/><path fill="#231F20" fill-rule="evenodd" d="M186.09 170.74C181.956 171.567 179.051 175.585 175.019 175.327C177.235 172.203 181.119 170.885 186.09 170.74Z" clip-rule="evenodd"/><path fill="#231F20" fill-rule="evenodd" d="M187.913 177.209C184.544 177.565 180.586 178.111 177.169 177.829C178.787 175.358 185.02 176.211 187.913 177.209Z" clip-rule="evenodd"/><path fill="#231F20" fill-rule="evenodd" d="M189.081 182.787C185.294 182.869 180.587 182.793 176.988 182.491C179.117 180.204 186.625 181.643 189.081 182.787Z" clip-rule="evenodd"/><path fill="#DCD9D8" fill-rule="evenodd" d="M159.096 198.05C159.639 202.806 161.525 207.625 161.288 212.833C159.195 213.539 157.992 214.157 155.187 214.153C154.989 209.727 154.397 202.96 154.574 198.74C155.953 198.832 157.988 197.755 159.096 198.05Z" clip-rule="evenodd"/><path fill="#F0D6B7" fill-rule="evenodd" d="M152.991 127.961C151.09 129.202 149.47 130.752 147.644 132.077C143.595 132.277 141.385 131.796 138.409 129.471C138.458 129.284 138.757 129.368 138.768 129.139C143.103 131.071 148.614 128.352 152.991 127.961" clip-rule="evenodd"/><path fill="#81B0C4" fill-rule="evenodd" d="M130.234 157.51C131.425 152.349 136.092 149.676 140.33 146.834C144.704 152.386 147.365 159.525 150.294 166.414C143.373 164.328 136.3 160.942 130.234 157.51Z" clip-rule="evenodd"/><path fill="#231F20" fill-rule="evenodd" d="M154.574 198.74C154.397 202.96 154.989 209.727 155.187 214.153C157.992 214.157 159.195 213.539 161.288 212.833C161.525 207.625 159.639 202.806 159.096 198.05C157.988 197.755 155.953 198.832 154.574 198.74V198.74ZM110.892 174.743C112.742 191.749 115.422 206.044 120.336 221.103C131.242 224.414 144.39 224.703 154.03 221.715C152.26 213.215 153.034 202.868 151.999 193.798C151.219 186.981 151.617 180.122 150.548 173.167C138.867 170.737 122.356 172.599 110.892 174.743V174.743ZM153.31 173.273C153.211 180.577 153.637 187.781 154.195 195.094C156.999 194.673 158.902 194.392 161.508 193.821C160.662 186.781 160.766 178.859 159.042 172.631C157.05 172.65 155.296 172.608 153.31 173.273V173.273ZM167.537 172.096C166.206 171.791 164.656 172.084 163.385 172.109C163.982 178.063 165.433 184.632 165.943 190.882C167.944 190.944 169.013 190 170.659 189.683C170.747 184.197 170.179 176.639 167.537 172.096V172.096ZM189.078 191.778C193.249 190.765 195.872 185.657 194.705 180.411C193.922 176.885 192.528 170.247 191.036 167.991C189.933 166.323 186.944 164.139 184.557 165.667C180.674 168.154 173.833 168.876 171.002 171.885C172.421 176.613 172.862 183.107 173.448 189.097C178.299 189.399 184.268 187.762 188.302 189.499C185.485 190.412 181.831 190.419 179.397 191.749C181.386 192.709 186.042 192.515 189.078 191.778V191.778ZM150.294 166.414C147.365 159.525 144.704 152.386 140.33 146.834C136.092 149.676 131.425 152.349 130.234 157.51C136.3 160.942 143.373 164.328 150.294 166.414ZM157.515 145.08C157.238 151.97 156.452 161.008 154.615 166.408C158.996 160.83 162.529 154.335 166.221 148.011C164.647 145.485 161.357 143.282 157.515 145.08V145.08ZM149.329 142.171C147.67 141.993 146.261 144.079 144.103 143.177C143.609 143.724 143.159 144.316 142.655 144.849C147.421 150.593 149.587 158.742 153.268 165.492C155.244 159.008 155.016 151.904 155.451 144.828C152.737 145 151.231 142.373 149.329 142.171ZM144.066 135.224C143.889 137.191 144.346 137.835 144.742 140.09C151.208 142.111 150.079 131.215 144.066 135.224ZM136.895 132.87C134.109 131.348 129.923 129.69 126.324 129.003C121.863 128.15 122.281 135.088 122.47 139.228C122.619 142.505 124.323 145.97 125.064 148.148C125.411 149.164 125.489 150.243 126.358 150.445C127.895 150.803 132.962 148.776 134.406 147.989C137.46 146.324 139.829 143.679 142.423 141.904C142.457 141.04 142.49 140.177 142.524 139.313C140.965 138.536 139.163 137.985 136.873 137.885C138.426 137.103 140.711 137.115 142.126 136.185C142.139 135.839 142.154 135.494 142.166 135.151C139.582 134.952 138.598 133.801 136.895 132.87V132.87ZM110.281 128.036C107.969 130.384 116.767 133.584 119.569 133.756C119.553 132.271 120.415 130.87 120.242 129.804C116.915 129.22 112.542 129.606 110.281 128.036V128.036ZM138.768 129.139C138.757 129.368 138.458 129.284 138.409 129.471C141.385 131.796 143.594 132.277 147.644 132.077C149.47 130.752 151.09 129.202 152.991 127.961C148.614 128.352 143.103 131.071 138.768 129.139V129.139ZM164.916 137.067C164.791 134.459 164.106 129.095 162.494 128.156C159.11 126.181 153.094 132.144 150.546 133.054C150.824 133.852 151.281 134.484 151.316 135.504C152.824 135.133 154.659 135.387 155.965 136.029C154.454 136.198 152.78 136.187 151.78 136.906C151.414 137.965 151.87 139.407 151.627 140.877C155.211 141.888 159.306 142.426 163.838 142.559C164.719 141.413 165.02 139.231 164.916 137.067V137.067ZM106.388 130.307C105.662 129.789 100.75 123.397 100.077 123.663C91.1875 127.168 82.8757 133.23 75.4482 138.963C82.5299 154.159 85.3885 172.776 85.8937 190.719C94.006 194.514 101.131 199.983 112.14 200.554C110.866 191.542 109.703 183.501 108.98 175.015C106.214 173.849 102.246 175.068 99.6573 174.654C99.6353 171.534 103.61 173.288 103.942 171.19C104.191 169.603 101.754 169.483 102.548 166.985C104.571 167.72 105.634 169.345 107.792 169.955C109.764 165.641 107.765 158.008 108.049 154.402C108.103 153.725 108.387 150.652 109.903 151.191C111.246 151.668 109.827 159.365 109.974 162.778C110.108 165.922 109.594 168.965 110.867 170.938C121.505 169.49 132.314 168.555 143.824 168.239C141.292 167.152 138.284 166.124 134.986 164.265C133.198 163.257 127.562 161.16 127.046 159.462C126.223 156.756 129.206 155.315 129.716 152.995C124.347 155.924 123.299 150.188 122.029 146.125C120.878 142.445 120.223 139.696 119.941 137.573C115.315 135.368 110.37 133.135 106.388 130.307V130.307ZM160.218 124.436C167.624 120.845 168.959 137.858 166.056 143.339C166.505 144.974 168.048 145.599 168.678 147.069C164.545 154.473 159.954 161.384 155.737 168.7C158.874 166.748 163.355 168.351 167.046 166.889C168.396 166.356 169.373 163.267 170.394 160.796C173.204 153.997 176.155 145.425 177.467 138.937C177.764 137.459 178.571 134.238 178.39 132.922C178.067 130.566 174.871 128.82 173.245 127.363C170.25 124.672 168.364 122.304 165.239 119.788C163.973 121.659 161.254 122.915 160.218 124.436V124.436ZM89.4503 58.7564C85.9212 62.6394 86.6599 69.9151 87.0872 75.0913C93.4661 71.0785 101.933 75.4086 101.853 82.234C104.898 82.153 102.991 78.4303 102.44 76.032C100.639 68.1987 105.473 59.6883 102.659 52.5248C97.1955 52.9391 92.707 55.1707 89.4503 58.7564V58.7564ZM114.702 36.2195C106.712 38.484 96.4731 44.2893 93.1901 51.4663C95.7322 51.0969 97.4969 49.8149 100.005 49.6562C100.952 49.5945 102.194 50.0537 103.283 49.7828C105.454 49.2444 107.286 44.3774 108.924 42.5665C110.52 40.7981 112.439 40.0425 113.752 38.4303C114.595 38.0232 115.843 38.0513 115.89 36.7844C115.525 36.3934 115.14 36.0953 114.702 36.2195V36.2195ZM156.291 38.3493C147.998 33.6707 133.962 30.1514 125.141 34.5489C118.024 38.0977 108.402 43.9695 105.122 51.4102C108.187 58.5905 104.215 65.1699 103.961 72.4599C103.826 76.3389 105.787 79.7252 105.938 83.9479C104.889 85.6779 101.685 85.891 99.4679 85.7724C98.7214 82.0368 97.4146 77.8381 93.5679 77.4167C88.1248 76.8213 84.1449 81.3261 83.8977 86.0336C83.605 91.5697 88.1498 100.745 94.5913 100.108C97.0797 99.8622 97.691 97.3678 100.402 97.3934C101.872 100.325 98.1355 101.246 97.7511 103.343C97.651 103.885 98.061 106.002 98.2994 106.994C99.4695 111.829 102.078 118.085 104.645 121.765C107.903 126.433 114.305 127.137 121.192 127.595C122.422 124.945 126.953 125.163 129.906 125.856C126.367 124.454 123.078 121.057 120.351 118.05C117.22 114.599 114.048 110.898 113.887 106.389C119.805 114.599 124.694 121.768 135.455 125.38C143.598 128.111 153.107 124.128 159.364 119.735C161.96 117.909 163.51 115.011 165.355 112.359C172.26 102.427 175.481 88.2508 174.773 74.5104C174.481 68.8437 174.494 63.1963 172.593 59.3838C170.606 55.3974 163.885 51.8309 159.95 55.4367C159.221 51.5601 163.222 49.1627 167.921 50.5577C164.57 46.2332 161.054 41.0368 156.291 38.3493V38.3493ZM171.74 166.208C178.22 162.986 190.328 157.537 194.39 166.22C195.889 169.42 197.648 174.83 198.425 178.134C199.522 182.795 197.235 192.591 192.445 194.156C188.213 195.537 183.276 195.453 178.179 194.429C177.578 193.93 176.91 193.059 176.443 192.152C172.804 192.011 169.396 192.348 166.521 193.844C166.793 196.535 164.973 196.967 163.266 197.522C162.001 202.538 165.797 209.09 164.889 213.664C164.24 216.923 160.231 217.427 157.284 218.037C157.187 219.848 157.413 221.36 157.614 222.892C156.94 225.375 153.917 226.788 151.054 227.135C141.631 228.268 127.325 228.777 118.262 225.518C115.733 219.314 113.741 211.769 111.634 204.686C102.795 205.63 95.6461 200.872 88.9066 197.755C86.5732 196.673 83.3453 196.077 82.4736 194.22C81.6284 192.421 81.9743 188.975 81.7646 185.72C81.2309 177.405 80.774 169.385 78.5782 160.871C77.5923 157.051 75.8739 153.679 74.6751 149.998C73.5671 146.587 71.6312 142.37 71.1263 138.968C70.3776 133.925 75.1258 133.645 78.1619 131.46C82.8554 128.081 86.5394 126.212 91.6225 123.163C93.128 122.26 97.6682 119.974 98.1846 118.921C99.2112 116.833 96.4224 113.89 95.6768 112.254C94.4974 109.667 93.8824 107.469 93.7134 104.916C89.4494 104.242 86.217 101.704 84.2645 98.8429C81.0347 94.1074 78.7948 85.3461 81.5893 78.6819C81.8084 78.157 82.9014 77.125 83.0626 76.3189C83.3806 74.7316 82.4641 72.621 82.4071 70.9327C82.1135 62.2708 83.8727 54.8077 89.7038 52.1955C92.0711 42.7652 100.544 39.6298 108.526 34.9431C111.51 33.1915 114.799 32.0721 118.196 30.8221C130.382 26.3373 149.079 27.1819 159.193 34.8309C163.481 38.0745 170.336 44.9231 172.788 49.8814C179.264 62.9719 178.804 84.8493 174.275 100.773C173.666 102.911 172.783 106.054 171.55 108.622C170.69 110.415 168.018 114.003 168.342 115.587C168.676 117.224 174.435 121.596 175.67 122.787C177.893 124.932 182.118 127.779 182.46 130.486C182.828 133.366 181.191 137.307 180.361 140.087C177.589 149.363 174.884 157.938 171.74 166.208" clip-rule="evenodd"/><path fill="#F7E4CD" fill-rule="evenodd" d="M128.509 101.994C128.86 101.526 130.793 100.816 133.497 102.118C133.497 102.118 130.292 102.652 130.559 107.996L129.223 107.728C129.223 107.728 127.843 102.883 128.509 101.994" clip-rule="evenodd"/><path fill="#1D1919" fill-rule="evenodd" d="M151.927 147.925C151.927 148.736 151.269 149.393 150.458 149.393C149.647 149.393 148.989 148.736 148.989 147.925C148.989 147.114 149.647 146.455 150.458 146.455C151.269 146.455 151.927 147.114 151.927 147.925Z" clip-rule="evenodd"/><path fill="#1D1919" fill-rule="evenodd" d="M153.396 154.736C153.396 155.547 152.738 156.204 151.926 156.204C151.115 156.204 150.458 155.547 150.458 154.736C150.458 153.925 151.115 153.266 151.926 153.266C152.738 153.266 153.396 153.925 153.396 154.736Z" clip-rule="evenodd"/></g><defs><clipPath id="clip0_137_129"><rect width="144.872" height="200" fill="#fff" transform="translate(56 28)"/></clipPath></defs></svg>
        </g>
         
        <g transform="translate(0, 300)">
          <svg xmlns="http://www.w3.org/2000/svg" width="256" height="256" fill="none" viewBox="0 0 256 256"><rect width="256" height="256" fill="#023430" rx="60"/><path fill="#10AA50" d="M171.173 107.591C160.636 61.1097 138.676 48.7357 133.074 39.9886C130.764 36.1353 128.717 32.1299 126.949 28C126.653 32.1292 126.109 34.7307 122.599 37.862C115.552 44.1454 85.6217 68.5354 83.1028 121.348C80.756 170.59 119.303 200.953 124.395 204.092C128.311 206.019 133.08 204.133 135.407 202.364C153.988 189.612 179.376 155.614 171.193 107.591"/><path fill="#B8C4C2" d="M128.545 177.871C127.575 190.059 126.88 197.141 124.416 204.106C124.416 204.106 126.033 215.709 127.169 228H131.188C132.147 219.345 133.61 210.753 135.572 202.268C130.369 199.708 128.745 188.566 128.545 177.871Z"/><path fill="#12924F" d="M135.565 202.275C130.307 199.846 128.786 188.469 128.552 177.871C129.852 160.388 130.231 142.849 129.688 125.326C129.412 116.132 129.818 40.1676 127.423 29.0461C129.062 32.8129 130.949 36.4662 133.074 39.9818C138.676 48.7358 160.643 61.1097 171.173 107.591C179.376 155.532 154.126 189.44 135.565 202.275Z"/></svg>
        </g>
         
        <g transform="translate(300, 300)">
          <svg xmlns="http://www.w3.org/2000/svg" width="256" height="256" fill="none" viewBox="0 0 256 256"><rect width="256" height="256" fill="#242938" rx="60"/><g clip-path="url(#clip0_7_147)"><path fill="#fff" fill-rule="evenodd" d="M203.801 178.21C194.011 177.938 186.416 178.941 180.051 181.619C178.218 182.355 175.277 182.355 175.035 184.662C176.015 185.63 176.133 187.214 176.992 188.556C178.459 190.991 181.033 194.271 183.357 195.973L191.191 201.571C195.965 204.488 201.351 206.193 206.002 209.113C208.696 210.817 211.388 213.007 214.082 214.834C215.454 215.807 216.285 217.392 218 217.997V217.629C217.144 216.538 216.897 214.957 216.044 213.735L212.367 210.209C208.82 205.465 204.41 201.325 199.636 197.922C195.718 195.245 187.152 191.596 185.56 187.097L185.319 186.824C188.008 186.552 191.191 185.605 193.764 184.875C197.929 183.784 201.721 184.024 206.002 182.93L211.882 181.226V180.135C209.678 177.946 208.087 175.025 205.763 172.959C199.521 167.606 192.661 162.373 185.56 157.994C181.766 155.562 176.868 153.977 172.829 151.913C171.356 151.182 168.911 150.817 168.055 149.601C165.846 146.929 164.625 143.397 163.034 140.232L152.997 119.064C150.794 114.319 149.444 109.574 146.755 105.195C134.144 84.5124 120.431 71.9828 99.375 59.6932C94.8477 57.1382 89.4616 56.0393 83.7353 54.7032L74.5546 54.2124C72.5928 53.3616 70.6364 51.0493 68.9216 49.9531C61.9441 45.5739 43.9475 36.0847 38.8029 48.5897C35.4966 56.4974 43.7006 64.2824 46.4855 68.299C48.5708 71.0966 51.2597 74.2597 52.7332 77.4228C53.5563 79.4897 53.8307 81.682 54.6895 83.8717C56.6458 89.2243 58.4842 95.1878 61.0551 100.178C62.427 102.733 63.8675 105.413 65.5824 107.723C66.5619 109.086 68.2768 109.67 68.6417 111.859C66.9268 114.294 66.8089 117.94 65.8293 120.986C61.42 134.734 63.1349 151.766 69.377 161.888C71.3389 164.928 75.9622 171.622 82.2345 169.065C87.744 166.875 86.5148 159.941 88.1062 153.857C88.4766 152.399 88.2297 151.425 88.9623 150.449V150.722L93.9834 160.819C97.7781 166.78 104.391 172.986 109.897 177.125C112.833 179.315 115.16 183.089 118.831 184.425V184.057H118.59C117.854 182.966 116.751 182.475 115.772 181.624C113.569 179.435 111.121 176.757 109.406 174.325C104.267 167.513 99.7399 159.968 95.6983 152.183C93.7365 148.412 92.0216 144.275 90.4357 140.504C89.6949 139.043 89.6949 136.85 88.4739 136.125C86.6355 138.797 83.9466 141.115 82.5939 144.398C80.2672 149.628 80.0257 156.077 79.1697 162.769C78.6758 162.891 78.8953 162.769 78.6758 163.041C74.7631 162.071 73.4132 158.051 71.9453 154.648C68.274 146.01 67.6594 132.141 70.8422 122.164C71.6983 119.609 75.375 111.579 73.9071 109.146C73.1662 106.834 70.7242 105.498 69.3743 103.671C67.7829 101.359 66.0735 98.4409 64.9705 95.8859C62.0346 89.0689 60.5667 81.5293 57.3812 74.7151C55.9077 71.552 53.3396 68.2662 51.257 65.3486C48.9303 62.0628 46.3648 59.7505 44.5265 55.8593C43.9146 54.4959 43.0585 52.3309 44.0381 50.8693C44.2795 49.8959 44.7734 49.5059 45.7475 49.2878C47.3389 47.9244 51.8716 49.6532 53.463 50.3785C57.9903 52.2054 61.7849 53.907 65.5796 56.4592C67.2945 57.6754 69.1329 59.9877 71.3361 60.5985H73.9098C77.8279 61.4493 82.2317 60.8712 85.9002 61.9619C92.3893 64.0343 98.2637 67.0719 103.532 70.3604C119.567 80.4577 132.792 94.8143 141.725 111.971C143.193 114.769 143.805 117.324 145.155 120.244C147.729 126.208 150.912 132.289 153.477 138.132C156.051 143.85 158.498 149.694 162.17 154.438C164.008 156.993 171.35 158.329 174.654 159.668C177.104 160.759 180.896 161.741 183.105 163.077C187.264 165.632 191.427 168.552 195.342 171.35C197.298 172.806 203.423 175.849 203.787 178.276L203.801 178.21ZM78.9584 72.4873C77.267 72.4724 75.5809 72.6769 73.9427 73.0954V73.3681H74.1842C75.1637 75.315 76.8786 76.6538 78.1023 78.3581L80.9202 84.1989L81.1616 83.9262C82.8765 82.71 83.7353 80.7631 83.7353 77.8454C83 76.9947 82.8793 76.1412 82.2674 75.2904C81.5321 74.0743 79.9407 73.4635 78.9584 72.4928V72.4873Z" clip-rule="evenodd"/></g><defs><clipPath id="clip0_7_147"><rect width="180" height="180" fill="#fff" transform="translate(38 38)"/></clipPath></defs></svg>
        </g>
         
        <g transform="translate(600, 300)">
          <svg xmlns="http://www.w3.org/2000/svg" width="256" height="256" fill="none" viewBox="0 0 256 256"><rect width="256" height="256" fill="#242938" rx="60"/><path fill="#fff" d="M121.451 28.0537C121.021 28.0928 119.652 28.2297 118.42 28.3274C90.0137 30.8885 63.4057 46.216 46.5533 69.7742C37.1691 82.8729 31.1672 97.7312 28.8993 113.469C28.0978 118.963 28 120.586 28 128.034C28 135.483 28.0978 137.106 28.8993 142.599C34.3343 180.155 61.0596 211.71 97.306 223.401C103.797 225.493 110.639 226.92 118.42 227.78C121.451 228.112 134.549 228.112 137.58 227.78C151.011 226.294 162.389 222.971 173.611 217.242C175.331 216.363 175.664 216.128 175.429 215.933C175.273 215.815 167.941 205.981 159.144 194.095L143.152 172.492L123.112 142.834C112.086 126.529 103.015 113.195 102.936 113.195C102.858 113.176 102.78 126.353 102.741 142.443C102.682 170.615 102.663 171.749 102.311 172.413C101.803 173.371 101.412 173.762 100.59 174.193C99.9648 174.505 99.4174 174.564 96.4653 174.564H93.0831L92.1838 173.997C91.5973 173.626 91.1672 173.137 90.8739 172.57L90.4633 171.69L90.5024 132.492L90.5611 93.2737L91.1672 92.5112C91.48 92.1007 92.1447 91.5728 92.6139 91.3186C93.4154 90.9276 93.7283 90.8885 97.1105 90.8885C101.099 90.8885 101.763 91.0449 102.8 92.1789C103.093 92.4917 113.943 108.836 126.925 128.523C139.906 148.21 157.658 175.092 166.377 188.288L182.213 212.277L183.015 211.749C190.111 207.135 197.619 200.566 203.562 193.723C216.211 179.197 224.364 161.485 227.101 142.599C227.902 137.106 228 135.483 228 128.034C228 120.586 227.902 118.963 227.101 113.469C221.666 75.913 194.94 44.3587 158.694 32.6676C152.301 30.5953 145.498 29.1681 137.873 28.3079C135.996 28.1124 123.073 27.8973 121.451 28.0537ZM162.389 88.5425C163.327 89.0117 164.09 89.911 164.364 90.8494C164.52 91.3577 164.559 102.228 164.52 126.724L164.461 161.876L158.264 152.374L152.047 142.873V117.321C152.047 100.801 152.125 91.5141 152.242 91.0645C152.555 89.9697 153.239 89.1095 154.178 88.6011C154.979 88.1906 155.273 88.1515 158.342 88.1515C161.236 88.1515 161.744 88.1906 162.389 88.5425Z"/></svg>
        </g>
         
        <g transform="translate(900, 300)">
          <svg xmlns="http://www.w3.org/2000/svg" width="256" height="256" fill="none" viewBox="0 0 256 256"><rect width="256" height="256" fill="#009639" rx="60"/><path fill="#fff" d="M195.338 213C190.746 213 186.224 211.213 182.847 207.829L78.3239 103.307V195.34C78.3239 205.095 70.4184 213 60.662 213C50.9126 213 43 205.095 43 195.34V60.6678C43 53.5189 47.3095 47.0834 53.908 44.3496C60.4995 41.6087 68.1012 43.1204 73.1525 48.1784L177.676 152.7V60.6678C177.676 50.9122 185.582 43.0074 195.338 43.0074C205.095 43.0074 213 50.9122 213 60.6678V195.34C213 202.481 208.69 208.924 202.092 211.658C199.909 212.562 197.62 213 195.338 213Z"/></svg>
        </g>
         
        <g transform="translate(1200, 300)">
          <svg xmlns="http://www.w3.org/2000/svg" width="256" height="256" fill="none" viewBox="0 0 256 256"><rect width="256" height="256" fill="#242938" rx="60"/><path fill="#81CD39" d="M119.878 31.1164C124.797 28.3008 131.203 28.2883 136.117 31.1164C160.839 45.0855 185.569 59.0332 210.287 73.0108C214.937 75.6296 218.046 80.8038 217.999 86.1608V170.206C218.034 175.785 214.617 181.083 209.712 183.642C185.071 197.535 160.442 211.444 135.805 225.337C130.786 228.207 124.251 227.986 119.387 224.88C112 220.598 104.6 216.336 97.2121 212.058C95.7022 211.158 94.0004 210.442 92.9345 208.978C93.8766 207.708 95.5618 207.55 96.9309 206.995C100.014 206.014 102.847 204.44 105.679 202.913C106.396 202.423 107.27 202.611 107.957 203.049C114.274 206.671 120.536 210.399 126.874 213.986C128.226 214.767 129.595 213.73 130.751 213.086C154.931 199.419 179.141 185.805 203.318 172.134C204.214 171.703 204.709 170.752 204.636 169.771C204.653 142.046 204.64 114.317 204.645 86.5918C204.747 85.4785 204.103 84.455 203.096 83.999C178.541 70.1702 153.997 56.3205 129.446 42.4882C128.575 41.8893 127.426 41.8878 126.554 42.4837C102.002 56.3205 77.4638 70.1832 52.9124 84.011C51.9092 84.4675 51.236 85.4745 51.3554 86.5918C51.3596 114.317 51.3554 142.046 51.3554 169.775C51.2682 170.756 51.801 171.687 52.6906 172.109C59.2422 175.824 65.8024 179.513 72.3582 183.216C76.0516 185.203 80.5863 186.385 84.6555 184.862C88.2463 183.574 90.7633 179.909 90.6948 176.097C90.7288 148.534 90.6778 120.967 90.7203 93.4078C90.6309 92.1841 91.7912 91.1731 92.981 91.2885C96.1292 91.267 99.281 91.2461 102.429 91.297C103.743 91.267 104.647 92.5847 104.485 93.8174C104.472 121.555 104.519 149.293 104.464 177.03C104.472 184.423 101.435 192.467 94.5973 196.084C86.1737 200.447 75.7619 199.522 67.4399 195.338C60.2355 191.742 53.3603 187.498 46.2838 183.646C41.3661 181.101 37.966 175.782 38.0006 170.207V86.1608C37.949 80.6929 41.1825 75.4248 45.9764 72.8445C70.6133 58.9408 95.2461 45.0261 119.878 31.1164Z"/><path fill="#81CD39" d="M141.372 89.3351C152.117 88.6433 163.62 88.9255 173.289 94.2185C180.776 98.2754 184.926 106.789 185.058 115.106C184.849 116.227 183.676 116.846 182.605 116.769C179.488 116.765 176.369 116.812 173.252 116.748C171.929 116.799 171.161 115.58 170.995 114.411C170.099 110.431 167.928 106.49 164.183 104.57C158.433 101.692 151.767 101.837 145.497 101.897C140.92 102.139 135.998 102.536 132.12 105.227C129.143 107.266 128.239 111.382 129.301 114.697C130.303 117.077 133.05 117.845 135.299 118.553C148.248 121.94 161.97 121.602 174.672 126.059C179.931 127.876 185.075 131.409 186.875 136.915C189.23 144.295 188.198 153.115 182.947 159.039C178.689 163.914 172.488 166.568 166.303 168.009C158.075 169.844 149.536 169.891 141.18 169.076C133.323 168.18 125.146 166.116 119.081 160.763C113.894 156.259 111.361 149.241 111.612 142.469C111.672 141.325 112.811 140.527 113.907 140.621C117.046 140.596 120.186 140.587 123.325 140.626C124.58 140.536 125.509 141.62 125.574 142.802C126.152 146.593 127.577 150.573 130.884 152.82C137.264 156.937 145.271 156.655 152.577 156.77C158.63 156.502 165.425 156.421 170.364 152.42C172.97 150.138 173.742 146.32 173.038 143.036C172.275 140.263 169.374 138.971 166.883 138.126C154.1 134.083 140.224 135.55 127.565 130.977C122.425 129.161 117.455 125.727 115.481 120.447C112.726 112.974 113.988 103.73 119.789 98.0061C125.445 92.312 133.609 90.1192 141.372 89.3346V89.3351"/></svg>
        </g>
         
        <g transform="translate(1500, 300)">
          <svg width="256" height="256" viewBox="0 0 256 256" fill="none" xmlns="http://www.w3.org/2000/svg">
<rect width="256" height="256" rx="60" fill="#242938"/>
<path fill-rule="evenodd" clip-rule="evenodd" d="M200.682 40H54.6695C45.5013 40 38 47.5013 38 56.6695V95.8738H78.4391V89.453C78.4391 84.4675 82.483 80.4391 87.4529 80.4391H167.868C172.853 80.4391 176.882 84.483 176.882 89.453V95.8738H217.321V56.6695C217.321 47.5013 209.82 40 200.651 40H200.682Z" fill="#ED1844"/>
<path fill-rule="evenodd" clip-rule="evenodd" d="M177.53 166.102C177.53 171.087 173.486 175.116 168.516 175.116H88.1011C83.1157 175.116 79.0873 171.072 79.0873 166.102V159.681H38.6482V198.885C38.6482 208.054 46.1495 215.555 55.3177 215.555H201.331C210.499 215.555 218 208.054 218 198.885V159.681H177.561L177.53 166.102Z" fill="#ED1844"/>
<path fill-rule="evenodd" clip-rule="evenodd" d="M38.6172 107.604V148.043H78.7476V107.604H38.6172Z" fill="#ED1844"/>
<path fill-rule="evenodd" clip-rule="evenodd" d="M177.53 107.604V148.043H217.661V107.604H177.53Z" fill="#ED1844"/>
</svg>

        </g>
         
        <g transform="translate(1800, 300)">
          <svg xmlns="http://www.w3.org/2000/svg" width="256" height="256" fill="none" viewBox="0 0 256 256"><rect width="256" height="256" fill="#242938" rx="60"/><path fill="#fff" d="M49.158 100.246H77.566C85.904 100.316 91.946 102.72 95.692 107.454C99.438 112.188 100.674 118.654 99.402 126.852C98.908 130.598 97.812 134.272 96.116 137.876C94.49 141.48 92.23 144.73 89.332 147.628C85.798 151.302 82.018 153.634 77.99 154.624C73.962 155.614 69.792 156.108 65.482 156.108H52.762L48.734 176.248H34L49.158 100.246V100.246ZM61.56 112.33L55.2 144.13C55.624 144.2 56.048 144.236 56.472 144.236C56.966 144.236 57.462 144.236 57.956 144.236C64.74 144.306 70.394 143.636 74.916 142.222C79.438 140.738 82.478 135.58 84.032 126.746C85.304 119.326 84.032 115.05 80.216 113.92C76.47 112.79 71.772 112.26 66.118 112.33C65.27 112.4 64.458 112.436 63.68 112.436C62.974 112.436 62.232 112.436 61.454 112.436L61.56 112.33"/><path fill="#fff" d="M116.186 80H130.814L126.68 100.246H139.824C147.032 100.388 152.402 101.872 155.936 104.698C159.54 107.524 160.6 112.896 159.116 120.81L152.014 156.108H137.174L143.958 122.4C144.664 118.866 144.452 116.358 143.322 114.874C142.192 113.39 139.754 112.648 136.008 112.648L124.242 112.542L115.55 156.108H100.922L116.186 80Z"/><path fill="#fff" d="M174.824 100.246H203.232C211.57 100.316 217.612 102.72 221.358 107.454C225.104 112.188 226.34 118.654 225.068 126.852C224.574 130.598 223.478 134.272 221.782 137.876C220.156 141.48 217.896 144.73 214.998 147.628C211.464 151.302 207.684 153.634 203.656 154.624C199.628 155.614 195.458 156.108 191.148 156.108H178.428L174.4 176.248H159.666L174.824 100.246V100.246ZM187.226 112.33L180.866 144.13C181.29 144.2 181.714 144.236 182.138 144.236C182.632 144.236 183.128 144.236 183.622 144.236C190.406 144.306 196.06 143.636 200.582 142.222C205.104 140.738 208.144 135.58 209.698 126.746C210.97 119.326 209.698 115.05 205.882 113.92C202.136 112.79 197.438 112.26 191.784 112.33C190.936 112.4 190.124 112.436 189.346 112.436C188.64 112.436 187.898 112.436 187.12 112.436L187.226 112.33"/></svg>
        </g>
         
        <g transform="translate(2100, 300)">
          <svg xmlns="http://www.w3.org/2000/svg" width="256" height="256" fill="none" viewBox="0 0 256 256"><rect width="256" height="256" fill="#242938" rx="60"/><path fill="#336791" d="M203.48 148.688C183.16 152.878 181.684 145.995 181.684 145.995C203.15 114.143 212.129 73.7134 204.38 63.8204C183.259 36.8204 146.689 49.5962 146.077 49.9266L145.88 49.9618C141.414 49.0656 136.873 48.5924 132.317 48.5485C123.12 48.4079 116.145 50.9602 110.844 54.9751C110.844 54.9751 45.6078 28.1016 48.6453 88.7743C49.2922 101.684 67.1375 186.509 88.4422 160.845C96.2891 151.409 103.812 143.484 103.812 143.484C107.539 145.966 112.018 147.232 116.708 146.775L117.073 146.466C116.966 147.681 117.016 148.905 117.221 150.108C111.737 156.239 113.354 157.315 102.385 159.572C91.2898 161.857 97.8148 165.928 102.062 166.997C107.223 168.291 119.162 170.119 127.234 158.827L126.91 160.113C129.062 161.836 130.566 171.314 130.313 179.906C130.06 188.499 129.891 194.391 131.579 199.003C133.266 203.616 134.954 213.98 149.368 210.956C161.413 208.376 167.649 201.675 168.528 190.524C169.147 182.592 170.539 183.759 170.638 176.672L171.763 173.311C173.049 162.553 171.973 159.087 179.391 160.704L181.198 160.866C186.662 161.112 193.813 159.987 198.003 158.039C207.038 153.849 212.396 146.845 203.487 148.688H203.48Z"/><path stroke="#fff" stroke-linecap="round" stroke-linejoin="round" stroke-width="5.034" d="M146.07 48.5961C143.82 49.2993 182.38 34.4985 204.303 62.504C212.038 72.3969 203.073 112.827 181.606 144.678M128.098 153.784C127.536 173.795 128.239 193.946 130.194 198.784C132.148 203.621 136.346 213.198 150.767 210.118C162.812 207.538 167.199 202.538 169.098 191.506L173.548 156.231L128.098 153.784ZM110.816 53.4688C110.816 53.4688 45.5375 26.7782 48.575 87.4508C49.2219 100.36 67.0672 185.185 88.3719 159.521C96.1484 150.148 103.18 142.815 103.18 142.815L110.816 53.4688Z"/><path stroke="#fff" stroke-linecap="round" stroke-linejoin="bevel" stroke-width="5.034" d="M181.613 144.664C181.613 144.664 183.02 151.555 203.41 147.35C212.319 145.508 206.954 152.511 197.926 156.702C190.515 160.147 173.893 161.026 173.619 156.28C172.916 144.01 182.366 147.737 181.684 144.664C181.065 141.894 176.832 139.18 174.048 132.402C171.608 126.495 140.579 81.1438 182.654 87.8727C184.201 87.5563 171.685 47.7946 132.31 47.2181C92.9352 46.6415 94.1797 95.6282 94.1797 95.6282"/><path stroke="#fff" stroke-linejoin="round" stroke-width="5.034" d="M117.08 148.869C111.596 155 113.213 156.076 102.245 158.333C91.1492 160.618 97.6742 164.689 101.921 165.758C107.082 167.052 119.021 168.88 127.093 157.58C129.554 154.135 127.079 148.651 123.704 147.259C122.073 146.584 119.893 145.74 117.095 148.876L117.08 148.869Z"/><path stroke="#fff" stroke-linecap="round" stroke-linejoin="round" stroke-width="5.034" d="M116.722 148.763C116.159 145.156 117.903 140.874 119.766 135.854C122.565 128.331 129.02 120.807 123.859 96.9219C120.013 79.1329 94.1867 93.2165 94.1867 95.6282C94.1867 98.0399 95.3539 107.863 93.7648 119.288C91.6766 134.209 103.257 146.823 116.588 145.536"/><path fill="#fff" stroke="#fff" stroke-width="1.68" d="M110.577 95.2695C110.457 96.0922 112.088 98.293 114.205 98.5883C116.321 98.8836 118.128 97.168 118.248 96.3383C118.367 95.5086 116.736 94.6086 114.62 94.3133C112.503 94.018 110.682 94.4539 110.577 95.2695V95.2695Z"/><path fill="#fff" stroke="#fff" stroke-width=".837" d="M175.011 93.5891C175.123 94.4118 173.499 96.6125 171.383 96.9079C169.266 97.2032 167.445 95.4875 167.34 94.6579C167.234 93.8282 168.852 92.9282 170.968 92.6329C173.084 92.3375 174.905 92.7735 175.011 93.5891Z"/><path stroke="#fff" stroke-linecap="round" stroke-linejoin="round" stroke-width="5.034" d="M182.577 87.8867C182.928 94.3555 181.184 98.75 180.959 105.634C180.636 115.632 185.727 127.079 178.055 138.54"/></svg>
        </g>
         
        <g transform="translate(2400, 300)">
          <svg width="256" height="256" viewBox="0 0 256 256" fill="none" xmlns="http://www.w3.org/2000/svg">
<rect width="256" height="256" rx="60" fill="#242938"/>
<path fill-rule="evenodd" clip-rule="evenodd" d="M36.4065 203.248C35.1443 203.286 33.8902 203.033 32.7411 202.51C31.5921 201.986 30.5788 201.205 29.7794 200.227C28.9801 199.169 28.4302 197.943 28.1705 196.643C27.9108 195.342 27.9482 193.999 28.2797 192.715L58.2516 61.7869C58.9172 59.073 60.4491 56.6499 62.6152 54.8845C64.7813 53.1191 67.4636 52.1077 70.2561 52.0034H219.594C220.856 51.9671 222.11 52.2206 223.258 52.7442C224.407 53.2679 225.421 54.0478 226.221 55.0242C227.02 56.083 227.57 57.3084 227.829 58.6091C228.089 59.9098 228.052 61.2524 227.721 62.5368L197.728 193.472C197.062 196.186 195.53 198.609 193.364 200.374C191.198 202.14 188.516 203.151 185.723 203.255H36.4065V203.248Z" fill="url(#paint0_linear_258_44)"/>
<path fill-rule="evenodd" clip-rule="evenodd" d="M70.2557 53.6861H219.594C220.64 53.6433 221.681 53.853 222.628 54.2974C223.576 54.7418 224.403 55.4078 225.039 56.2393C225.675 57.0707 226.101 58.043 226.282 59.0741C226.463 60.1051 226.393 61.1645 226.078 62.1628L196.085 193.091C195.494 195.427 194.168 197.512 192.302 199.039C190.437 200.565 188.13 201.451 185.723 201.567H36.4062C35.3602 201.61 34.3194 201.401 33.3716 200.956C32.4239 200.512 31.597 199.846 30.961 199.014C30.325 198.183 29.8986 197.21 29.7177 196.179C29.5368 195.148 29.6069 194.089 29.9219 193.091L59.9152 62.1628C60.504 59.8289 61.8265 57.7457 63.688 56.2197C65.5495 54.6938 67.8517 53.8057 70.2557 53.6861V53.6861Z" fill="url(#paint1_linear_258_44)"/>
<path fill-rule="evenodd" clip-rule="evenodd" d="M128.286 167.219H164.606C166.663 167.306 168.607 168.185 170.032 169.671C171.457 171.158 172.253 173.137 172.253 175.196C172.253 177.255 171.457 179.234 170.032 180.721C168.607 182.207 166.663 183.086 164.606 183.173H128.286C126.229 183.086 124.285 182.207 122.86 180.721C121.435 179.234 120.639 177.255 120.639 175.196C120.639 173.137 121.435 171.158 122.86 169.671C124.285 168.185 126.229 167.306 128.286 167.219V167.219Z" fill="#2C5591"/>
<path fill-rule="evenodd" clip-rule="evenodd" d="M151.846 131.756C150.806 133.505 149.358 134.975 147.625 136.041L80.2186 184.423C78.3415 185.644 76.0674 186.098 73.8654 185.691C71.6634 185.284 69.7015 184.048 68.3843 182.237C67.0671 180.426 66.4952 178.179 66.7864 175.959C67.0777 173.739 68.2099 171.715 69.9495 170.305L130.736 126.286V125.386L92.5445 84.7812C91.1206 83.0683 90.4045 80.8765 90.5422 78.6533C90.6799 76.4302 91.6611 74.3435 93.2855 72.8194C94.9098 71.2953 97.0547 70.4489 99.2821 70.4529C101.51 70.4569 103.651 71.3111 105.27 72.841L151.103 121.594C152.334 122.967 153.076 124.709 153.21 126.549C153.344 128.388 152.864 130.219 151.846 131.756Z" fill="#2C5591"/>
<path fill-rule="evenodd" clip-rule="evenodd" d="M150.138 130.071C149.103 131.821 147.657 133.291 145.925 134.356L78.54 182.745C76.6623 183.94 74.3996 184.375 72.2127 183.96C70.0258 183.546 68.0791 182.313 66.7692 180.513C65.4593 178.714 64.8847 176.482 65.1624 174.274C65.44 172.065 66.5491 170.046 68.2637 168.626L129.057 124.608V123.701L90.8658 83.0741C89.4286 81.3622 88.7018 79.1648 88.8348 76.9335C88.9679 74.7023 89.9507 72.6067 91.5811 71.0778C93.2116 69.5488 95.3659 68.7025 97.6011 68.713C99.8363 68.7234 101.983 69.5898 103.599 71.134L149.424 119.887C150.661 121.262 151.403 123.011 151.532 124.856C151.662 126.701 151.171 128.537 150.138 130.071V130.071Z" fill="white"/>
<path fill-rule="evenodd" clip-rule="evenodd" d="M127.287 166.278H163.607C165.613 166.278 167.536 167.075 168.955 168.493C170.373 169.911 171.17 171.835 171.17 173.84C171.17 175.846 170.373 177.77 168.955 179.188C167.536 180.606 165.613 181.403 163.607 181.403H127.287C125.281 181.403 123.357 180.606 121.939 179.188C120.521 177.77 119.724 175.846 119.724 173.84C119.724 171.835 120.521 169.911 121.939 168.493C123.357 167.075 125.281 166.278 127.287 166.278V166.278Z" fill="white"/>
<defs>
<linearGradient id="paint0_linear_258_44" x1="180.31" y1="174.355" x2="65.5857" y2="71.8775" gradientUnits="userSpaceOnUse">
<stop stop-color="#5391FE"/>
<stop offset="1" stop-color="#3E6DBF"/>
</linearGradient>
<linearGradient id="paint1_linear_258_44" x1="64.4427" y1="70.5109" x2="177.996" y2="172.56" gradientUnits="userSpaceOnUse">
<stop stop-color="#5391FE"/>
<stop offset="1" stop-color="#3E6DBF"/>
</linearGradient>
</defs>
</svg>

        </g>
         
        <g transform="translate(2700, 300)">
          undefined
        </g>
        
  </svg>
  